<?xml version="1.0" encoding="UTF-8"?>
<svg id="Warstwa_1" xmlns="http://www.w3.org/2000/svg" viewBox="0 0 59 59"><defs><style>.cls-1{fill:none;}.cls-2{fill:#d9d9d9;}.cls-3{opacity:0;}</style></defs><rect class="cls-1" width="59" height="59"/><g id="Repeat_Grid_2"><g id="MDI_bell-circle-outline"><g id="Boundary" class="cls-3"><rect class="cls-2" x="7.9" y="7.9" width="43.2" height="43.2"/><rect class="cls-1" x="8.4" y="8.4" width="42.2" height="42.2"/></g><path class="cls-2" d="M29.5,11.5c-9.94,0-18,8.06-18,18s8.06,18,18,18,18-8.06,18-18S39.44,11.5,29.5,11.5Zm0,32.4c-7.95,0-14.4-6.45-14.4-14.4s6.45-14.4,14.4-14.4,14.4,6.45,14.4,14.4-6.45,14.4-14.4,14.4Z"/><polygon class="cls-2" points="33.87 29.5 24.47 23.3 24.47 35.7 33.87 29.5"/><rect class="cls-2" x="19.01" y="27.2" width="10.47" height="4.61"/></g></g><rect class="cls-2" x="31.09" y="27.19" width="13.32" height="4.61" transform="translate(67.25 -8.25) rotate(90)"/></svg>