<?xml version="1.0" encoding="utf-8"?>
<!-- Generator: Adobe Illustrator 26.5.0, SVG Export Plug-In . SVG Version: 6.00 Build 0)  -->
<svg version="1.1" id="Warstwa_1" xmlns="http://www.w3.org/2000/svg" xmlns:xlink="http://www.w3.org/1999/xlink" x="0px" y="0px"
	 viewBox="0 0 254.9 67.8" style="enable-background:new 0 0 254.9 67.8;" xml:space="preserve">
<style type="text/css">
	.st0{fill:#FFFFFF;}
</style>
<path class="st0" d="M9.1,36H0C0,16.1,16.1,0,36,0v9.1C21.2,9.1,9.1,21.1,9.1,36L9.1,36z"/>
<rect x="31.5" y="18" class="st0" width="9" height="9"/>
<path class="st0" d="M37.4,36H23v9h5.2c-4.6,8.2-13.4,13.8-23.5,13.8v9.1c18.5,0,33.7-14,35.7-31.9L37.4,36L37.4,36z"/>
<g>
	<path class="st0" d="M63.7,9.1v20.8h-5.2V9.1H63.7z"/>
	<path class="st0" d="M68.1,18.5c0-1.3,0-2.8,0-3.9H73c0.1,0.4,0.1,1.4,0.1,2c0.7-1.1,2.2-2.4,5.2-2.4c3.9,0,6.2,2.3,6.2,6.2v9.4h-5
		v-8.6c0-1.7-0.7-3.3-2.9-3.3s-3.4,1.6-3.4,4.3v7.6h-5L68.1,18.5L68.1,18.5z"/>
	<path class="st0" d="M86.8,13.4h2.8V9h5v4.5h3.6v3.5h-3.6v7.6c0,1.3,0.3,1.9,1.8,1.9c0.4,0,0.9,0,1.3-0.1v3.3
		c-0.8,0.2-2,0.3-3.1,0.3c-3.9,0-5-1.6-5-4.6v-8.4h-2.8L86.8,13.4L86.8,13.4z"/>
	<path class="st0" d="M105,23.4c0.1,1.8,1.5,3.3,3.8,3.3c1.9,0,2.8-0.6,3.3-1.5h5c-0.9,2.7-3.3,5.1-8.3,5.1c-6.4,0-8.7-4.1-8.7-8
		c0-4.3,3-8.1,8.7-8.1c6.1,0,8.6,4.1,8.6,8.1c0,0.4,0,0.7,0,1.1L105,23.4L105,23.4z M112.3,20.5c-0.1-1.2-0.7-2.9-3.5-2.9
		c-2.6,0-3.6,1.4-3.7,2.9C105,20.5,112.3,20.5,112.3,20.5z"/>
	<path class="st0" d="M120.5,18.8c0-1.4,0-2.8,0-4.1h4.8c0.1,0.5,0.2,2.2,0.2,3c0.9-2,2.8-3.5,6-3.4v4.4c-3.6,0-6.1,1.3-6.1,5.7v5.6
		h-5V18.8z"/>
	<path class="st0" d="M134.2,18.5c0-1.3,0-2.8,0-3.9h4.9c0.1,0.4,0.1,1.4,0.1,2c0.7-1.1,2.1-2.4,5.2-2.4c3.9,0,6.1,2.3,6.1,6.2v9.4
		h-5v-8.6c0-1.7-0.7-3.3-2.9-3.3s-3.4,1.6-3.4,4.3v7.6h-5L134.2,18.5L134.2,18.5z"/>
	<path class="st0" d="M158.8,23.4c0.1,1.8,1.5,3.3,3.9,3.3c1.9,0,2.8-0.6,3.3-1.5h5c-0.9,2.7-3.3,5.1-8.3,5.1c-6.4,0-8.7-4.1-8.7-8
		c0-4.3,3-8.1,8.7-8.1c6.1,0,8.6,4.1,8.6,8.1c0,0.4,0,0.7,0,1.1L158.8,23.4L158.8,23.4z M166.1,20.5c-0.1-1.2-0.7-2.9-3.5-2.9
		c-2.6,0-3.6,1.4-3.7,2.9L166.1,20.5L166.1,20.5z"/>
	<path class="st0" d="M172.6,13.4h2.8V9h5v4.5h3.6v3.5h-3.6v7.6c0,1.3,0.3,1.9,1.8,1.9c0.4,0,0.9,0,1.3-0.1v3.3
		c-0.9,0.2-2,0.3-3.1,0.3c-3.9,0-5-1.6-5-4.6v-8.4h-2.8L172.6,13.4L172.6,13.4z"/>
	<path class="st0" d="M203.9,22.2c0,4.7-3.3,8.1-9.2,8.1s-8.8-3.8-8.8-8s3.1-8,9-8S203.9,18.5,203.9,22.2L203.9,22.2z M190.9,22.2
		c0,2.4,1.4,4.4,3.9,4.4s3.9-2,3.9-4.3s-1.2-4.5-3.9-4.5S190.9,19.9,190.9,22.2z"/>
	<path class="st0" d="M210.6,14.6c1.9,7.6,2.4,9.8,2.6,11.5h0c0.4-1.9,1-4,3.1-11.5h4.7c2.2,7.9,2.7,10,3,11.4h0
		c0.3-1.6,0.8-4.2,2.7-11.4h4.9l-4.9,15.2h-5.4c-1.6-5.4-2.3-7.9-2.8-9.9h0c-0.4,1.6-1.5,5.4-3,9.9h-5.4l-4.7-15.2L210.6,14.6
		L210.6,14.6z"/>
	<path class="st0" d="M234.1,9h5v3.8h-5C234.1,12.8,234.1,9,234.1,9z M234.1,14.6h5v15.2h-5V14.6z"/>
</g>
<g>
	<path class="st0" d="M63.7,51.1c0.6,1.8,2.1,3,5.6,3c3.3,0,4.2-1,4.2-2.3c0-1.4-1-2.2-5.4-3c-7.3-1.2-8.6-3.6-8.6-6.4
		c0-4.2,4-6.3,9-6.3c7.2,0,9.2,3.7,9.4,6.1h-5.1c-0.3-1-1-2.4-4.5-2.4c-2.4,0-3.7,0.8-3.7,2.1c0,1.2,0.9,1.8,4.8,2.5
		c8,1.4,9.2,3.8,9.2,6.8c0,3.6-2.9,6.5-9.9,6.5c-6.6,0-9.5-2.9-10.2-6.6C58.6,51.1,63.7,51.1,63.7,51.1z"/>
	<path class="st0" d="M87.1,55.9v7.9h-4.9V45.8c0-1.2,0-2.5,0-3.7H87c0.1,0.3,0.1,1.3,0.1,2c0.9-1.2,2.4-2.4,5.4-2.4
		c4,0,7.2,3.3,7.2,7.7c0,5.3-3.8,8.3-7.9,8.3C89.3,57.8,87.8,56.8,87.1,55.9L87.1,55.9z M94.7,49.7c0-2.2-1.3-4.2-3.8-4.2
		c-2.8,0-3.9,1.8-3.9,4.3s1.3,4.2,3.9,4.2S94.7,52.2,94.7,49.7z"/>
	<path class="st0" d="M103,46.2c0-1.4,0-2.8,0-4.1h4.8c0.1,0.5,0.1,2.2,0.1,3c0.9-2,2.8-3.5,5.9-3.4v4.4c-3.5,0-5.9,1.3-5.9,5.7v5.6
		H103V46.2z"/>
	<path class="st0" d="M115.8,53.9l8.9-8.1h-8.4v-3.7h14.5v3.5l-8.6,8h9.3l-0.6,3.7h-15.2L115.8,53.9L115.8,53.9z"/>
	<path class="st0" d="M138.1,50.9c0.1,1.8,1.5,3.3,3.8,3.3c1.8,0,2.7-0.6,3.3-1.5h4.9c-0.9,2.7-3.2,5.1-8.2,5.1
		c-6.3,0-8.6-4.1-8.6-8c0-4.3,2.9-8,8.6-8c6,0,8.4,4.1,8.4,8.1c0,0.4,0,0.7,0,1.2L138.1,50.9L138.1,50.9z M145.3,48
		c-0.1-1.2-0.7-2.9-3.5-2.9c-2.6,0-3.5,1.4-3.6,2.9H145.3z"/>
	<path class="st0" d="M170.2,36v17.1c0,1.4,0,2.9,0,4.3h-4.8c-0.1-0.5-0.1-1.2-0.1-1.8c-0.9,1.2-1.9,2.2-5.1,2.2
		c-4.3,0-7.5-3.1-7.5-7.9c0-5.1,4.1-8.2,7.9-8.2c3,0,4.2,1,4.7,1.6V36L170.2,36L170.2,36z M157.7,49.8c0,2.4,1.4,4.2,3.9,4.2
		s3.8-1.6,3.8-4.3s-1-4.3-3.8-4.3S157.7,47.5,157.7,49.8L157.7,49.8z"/>
	<path class="st0" d="M189.6,53.1c0,2,0.1,3.9,0.1,4.3h-4.6c-0.1-0.4-0.1-1.3-0.2-1.7c-0.8,1.3-2.6,2.1-5.5,2.1
		c-4.2,0-5.9-2.5-5.9-5c0-4,3.6-5.1,8.1-5.1h3.2v-0.5c0-1.2-0.5-2.2-2.8-2.2c-2.1,0-2.6,0.8-2.8,1.7h-4.9c0.1-1.9,1.5-4.9,7.6-4.9
		c6.7,0,7.6,3.1,7.6,5.7L189.6,53.1L189.6,53.1z M184.9,50.7c-0.4,0-1.4,0-3.1,0c-2.5,0-3.5,0.6-3.5,1.8c0,1,0.8,1.8,2.6,1.8
		c2.7,0,4-1.2,4-3.4L184.9,50.7L184.9,50.7z"/>
	<path class="st0" d="M196.6,42.1c1.9,7.6,2.3,9.8,2.6,11.5h0c0.4-1.9,0.9-4,3.1-11.5h4.6c2.2,7.9,2.7,10,2.9,11.4h0
		c0.3-1.6,0.8-4.2,2.7-11.4h4.8l-4.8,15.2h-5.3c-1.6-5.3-2.3-7.9-2.8-9.9h0c-0.4,1.6-1.5,5.4-2.9,9.9h-5.3l-4.6-15.2H196.6
		L196.6,42.1z"/>
	<path class="st0" d="M235.5,52.2c-0.6,2.9-3.1,5.6-8.2,5.6c-5.9,0-8.6-3.7-8.6-8.1c0-4.1,3-8,8.6-8c6.1,0,7.9,3.9,8.1,5.6h-4.9
		c-0.3-0.8-1-2-3.2-2c-2.5,0-3.6,1.8-3.6,4.4s1.1,4.5,3.6,4.5c1.8,0,2.7-0.6,3.3-1.9L235.5,52.2L235.5,52.2z"/>
	<path class="st0" d="M242,42.1c2.7,6.6,3.8,10.3,4.1,11.4h0.1c0.4-1.5,1.6-5.6,3.7-11.4h5l-5.1,13.1c-2.7,6.8-3.5,9-8.7,9
		c-0.7,0-1.8-0.1-2.4-0.2v-3.9c0.7,0.1,1.1,0.1,1.6,0.1c2.1,0,2.6-0.7,3.4-2.3l-6.9-15.8L242,42.1L242,42.1z"/>
</g>
</svg>
