<svg xmlns="http://www.w3.org/2000/svg" xmlns:xlink="http://www.w3.org/1999/xlink" width="184.497" height="165.865" viewBox="0 0 184.497 165.865">
  <defs>
    <clipPath id="clip-path">
      <rect id="Rectangle_781" data-name="Rectangle 781" width="184.497" height="165.865" fill="none"/>
    </clipPath>
  </defs>
  <g id="Group_957" data-name="Group 957" clip-path="url(#clip-path)">
    <path id="Path_4556" data-name="Path 4556" d="M204.48,227.753H129.236V223.6h71.091V150.394a1.451,1.451,0,0,0-1.45-1.449H77.225a1.449,1.449,0,0,0-1.447,1.449v52.857H71.625V150.394a5.608,5.608,0,0,1,5.6-5.6H198.877a5.609,5.609,0,0,1,5.6,5.6Z" transform="translate(-49.315 -99.691)" fill="#e2f8fe"/>
    <rect id="Rectangle_752" data-name="Rectangle 752" width="112.591" height="62.433" transform="translate(32.376 55.326)" fill="#9fe4f5"/>
    <path id="Path_4557" data-name="Path 4557" d="M326.46,421.555H256.577V417.4H326.46c.735,0,1.247-1.131,1.247-2.146V404.222h4.153v11.034c0,3.1-2.02,6.3-5.4,6.3" transform="translate(-176.656 -278.311)" fill="#e2f8fe"/>
    <path id="Path_4558" data-name="Path 4558" d="M331.165,472.1c-1.091-.474-2.584-1.144-3.506-1.649l-.118-.066c-2.04-1.131-2.57-1.958-3.155-4.919a42.01,42.01,0,0,1-.32-7.673c.021-1.591.041-3.093-.036-4.05l4.139-.336c.094,1.152.072,2.75.05,4.442a40.88,40.88,0,0,0,.242,6.811,6.6,6.6,0,0,0,.456,1.721c.059.052.38.229.638.372l.111.061c.6.329,1.725.855,3.155,1.477Z" transform="translate(-223.097 -312.176)" fill="#e2f8fe"/>
    <rect id="Rectangle_753" data-name="Rectangle 753" width="32.658" height="4.153" transform="translate(79.921 155.707)" fill="#e2f8fe"/>
    <path id="Path_4559" data-name="Path 4559" d="M244.26,235.85a24.6,24.6,0,1,1,24.6-24.6,24.624,24.624,0,0,1-24.6,24.6m0-45.039A20.443,20.443,0,1,0,264.7,211.254,20.466,20.466,0,0,0,244.26,190.81" transform="translate(-151.24 -128.515)" fill="#e2f8fe"/>
    <path id="Path_4560" data-name="Path 4560" d="M266.048,249.931l-7.414-7.415,2.937-2.936,4.477,4.477,14.386-14.387,2.936,2.937Z" transform="translate(-178.072 -158.131)" fill="#e2f8fe"/>
    <path id="Path_4561" data-name="Path 4561" d="M77.32,439.353H1.484V397.217H5.637V435.2h67.53V397.217H77.32Z" transform="translate(-1.022 -273.488)" fill="#e2f8fe"/>
    <rect id="Rectangle_754" data-name="Rectangle 754" width="76.761" height="16.565" transform="translate(0 107.29)" fill="#c7f0fa"/>
    <rect id="Rectangle_755" data-name="Rectangle 755" width="4.153" height="12.803" transform="translate(12.198 101.709)" fill="#e2f8fe"/>
    <rect id="Rectangle_756" data-name="Rectangle 756" width="4.153" height="12.803" transform="translate(60.41 101.709)" fill="#e2f8fe"/>
    <rect id="Rectangle_757" data-name="Rectangle 757" width="4.865" height="4.153" transform="translate(12.674 130.797)" fill="#e2f8fe"/>
    <rect id="Rectangle_758" data-name="Rectangle 758" width="4.865" height="4.153" transform="translate(21.831 130.797)" fill="#e2f8fe"/>
    <rect id="Rectangle_759" data-name="Rectangle 759" width="4.865" height="4.153" transform="translate(30.984 130.797)" fill="#e2f8fe"/>
    <rect id="Rectangle_760" data-name="Rectangle 760" width="4.865" height="4.153" transform="translate(40.141 130.797)" fill="#e2f8fe"/>
    <rect id="Rectangle_761" data-name="Rectangle 761" width="4.865" height="4.153" transform="translate(49.297 130.797)" fill="#e2f8fe"/>
    <rect id="Rectangle_762" data-name="Rectangle 762" width="4.865" height="4.153" transform="translate(58.451 130.797)" fill="#e2f8fe"/>
    <rect id="Rectangle_763" data-name="Rectangle 763" width="4.865" height="4.153" transform="translate(12.674 140.214)" fill="#e2f8fe"/>
    <rect id="Rectangle_764" data-name="Rectangle 764" width="4.865" height="4.153" transform="translate(21.831 140.214)" fill="#e2f8fe"/>
    <rect id="Rectangle_765" data-name="Rectangle 765" width="4.865" height="4.153" transform="translate(30.984 140.214)" fill="#e2f8fe"/>
    <rect id="Rectangle_766" data-name="Rectangle 766" width="4.865" height="4.153" transform="translate(40.141 140.214)" fill="#e2f8fe"/>
    <rect id="Rectangle_767" data-name="Rectangle 767" width="4.865" height="4.153" transform="translate(49.297 140.214)" fill="#e2f8fe"/>
    <rect id="Rectangle_768" data-name="Rectangle 768" width="4.865" height="4.153" transform="translate(58.451 140.214)" fill="#e2f8fe"/>
    <rect id="Rectangle_769" data-name="Rectangle 769" width="4.865" height="4.153" transform="translate(12.674 149.632)" fill="#e2f8fe"/>
    <rect id="Rectangle_770" data-name="Rectangle 770" width="4.865" height="4.153" transform="translate(21.831 149.632)" fill="#e2f8fe"/>
    <rect id="Rectangle_771" data-name="Rectangle 771" width="4.865" height="4.153" transform="translate(30.984 149.632)" fill="#e2f8fe"/>
    <rect id="Rectangle_772" data-name="Rectangle 772" width="4.865" height="4.153" transform="translate(40.141 149.632)" fill="#e2f8fe"/>
    <rect id="Rectangle_773" data-name="Rectangle 773" width="4.865" height="4.153" transform="translate(49.297 149.632)" fill="#e2f8fe"/>
    <rect id="Rectangle_774" data-name="Rectangle 774" width="4.865" height="4.153" transform="translate(58.451 149.632)" fill="#e2f8fe"/>
    <path id="Path_4562" data-name="Path 4562" d="M564.179,189.305l0-40.66a5.137,5.137,0,0,0-5.137-5.136H556.9a5.135,5.135,0,0,0-5.135,5.136l0,40.66Z" transform="translate(-379.897 -98.808)" fill="#68d4ee"/>
    <path id="Path_4563" data-name="Path 4563" d="M566,303.621V253.759c0-2.835-1.746-5.135-3.9-5.135H560.48c-2.152,0-3.9,2.3-3.9,5.135v49.863Z" transform="translate(-383.214 -171.18)" fill="#68d4ee"/>
    <path id="Path_4564" data-name="Path 4564" d="M530.1,199.06h-4.153V174.834a7.22,7.22,0,0,1,7.214-7.21H546.4v4.153H533.158a3.062,3.062,0,0,0-3.06,3.057Z" transform="translate(-362.119 -115.411)" fill="#e2f8fe"/>
    <rect id="Rectangle_775" data-name="Rectangle 775" width="12.628" height="4.153" transform="translate(171.869 88.634)" fill="#e2f8fe"/>
    <rect id="Rectangle_776" data-name="Rectangle 776" width="12.628" height="4.153" transform="translate(171.869 130.283)" fill="#e2f8fe"/>
    <path id="Path_4565" data-name="Path 4565" d="M561.273,444.034H557.12c0-2.871-1.416-6.439-2.253-6.937l-1.519-.386v-7.984H557.5V433.9c2.616,2.125,3.772,7.395,3.772,10.139" transform="translate(-380.986 -295.183)" fill="#e2f8fe"/>
    <path id="Path_4566" data-name="Path 4566" d="M569.61,444.034h-4.153c0-2.744,1.156-8.013,3.772-10.139v-5.168h4.153v7.984l-1.518.386c-.838.5-2.254,4.065-2.254,6.937" transform="translate(-389.323 -295.183)" fill="#e2f8fe"/>
    <rect id="Rectangle_777" data-name="Rectangle 777" width="73.318" height="4.153" transform="translate(60.248 1.917)" fill="#e2f8fe"/>
    <rect id="Rectangle_778" data-name="Rectangle 778" width="60.885" height="4.153" transform="translate(60.248 10.401)" fill="#e2f8fe"/>
    <path id="Path_4567" data-name="Path 4567" d="M142.776,13.707,137.7,9.019l2.819-3.05,1.791,1.656L148.4,0l3.247,2.59Z" transform="translate(-94.811 0)" fill="#e2f8fe"/>
    <rect id="Rectangle_779" data-name="Rectangle 779" width="73.318" height="4.153" transform="translate(60.248 24.19)" fill="#e2f8fe"/>
    <rect id="Rectangle_780" data-name="Rectangle 780" width="60.885" height="4.153" transform="translate(60.248 32.675)" fill="#e2f8fe"/>
    <path id="Path_4568" data-name="Path 4568" d="M142.775,85.213l-5.071-4.69,2.82-3.049,1.791,1.656L148.4,71.5l3.247,2.59Z" transform="translate(-94.811 -49.231)" fill="#e2f8fe"/>
  </g>
</svg>
