<svg xmlns="http://www.w3.org/2000/svg" xmlns:xlink="http://www.w3.org/1999/xlink" width="257.993" height="180.447" viewBox="0 0 257.993 180.447">
  <defs>
    <clipPath id="clip-path">
      <rect id="Rectangle_788" data-name="Rectangle 788" width="257.993" height="180.447" fill="none"/>
    </clipPath>
  </defs>
  <g id="Group_958" data-name="Group 958" clip-path="url(#clip-path)">
    <path id="Path_4569" data-name="Path 4569" d="M309.092,307.53h-4.779V226.735a1.966,1.966,0,0,0-1.963-1.965h-118.7a1.966,1.966,0,0,0-1.962,1.965V307.53h-4.778V226.735a6.749,6.749,0,0,1,6.741-6.743h118.7a6.75,6.75,0,0,1,6.742,6.743Z" transform="translate(-113.509 -141.154)" fill="#fd6d47"/>
    <path id="Path_4570" data-name="Path 4570" d="M281.787,473.333H136.25c-4.856,0-10.7-4.261-11.346-4.746l-.959-.717v-11.4H294.094v11.4l-.96.716c-.65.486-6.493,4.746-11.348,4.746m-153.064-7.9c2.133,1.412,5.41,3.124,7.526,3.124H281.787c2.116,0,5.394-1.711,7.529-3.125v-4.181H128.723Z" transform="translate(-79.527 -292.886)" fill="#fd6d47"/>
    <path id="Path_4571" data-name="Path 4571" d="M308.936,310.342l-3.658-.7.893-4.694,3.658.7Zm-8.352-1.589-4.694-.893.893-4.694,4.694.893Zm-9.388-1.786-4.694-.893.893-4.694,4.694.893Zm-9.388-1.786-4.694-.893.893-4.694,4.694.893ZM272.42,303.4l-4.694-.893.893-4.694,4.694.893Zm-9.388-1.786-4.694-.893.893-4.694,4.694.893Zm-9.388-1.786-4.694-.893.893-4.694,4.694.893Zm-9.388-1.786-4.694-.893.893-4.694,4.694.893Zm-9.388-1.786-4.694-.893.893-4.694,4.694.893Zm-9.388-1.786-4.694-.893.893-4.694,4.694.893Zm-9.388-1.786-4.694-.893.893-4.694,4.694.893Zm-9.388-1.786L202.01,290l.893-4.694,4.694.893Zm-9.388-1.786-4.694-.893.893-4.694,4.694.893Zm-9.388-1.786-4.694-.893.893-4.694,4.694.893Zm-9.388-1.786-4.694-.893.893-4.694,4.694.893Zm-9.388-1.786-4.694-.893.893-4.694,4.694.893Zm-9.388-1.786-4.694-.893.893-4.694,4.694.893Zm-9.388-1.786-4.694-.893.893-4.694,4.694.893Z" transform="translate(-93.474 -176.185)" fill="#fd6d47"/>
    <path id="Path_4572" data-name="Path 4572" d="M28.6,228.6A28.6,28.6,0,1,1,57.2,200a28.633,28.633,0,0,1-28.6,28.6m0-52.423A23.822,23.822,0,1,0,52.423,200,23.85,23.85,0,0,0,28.6,176.178" transform="translate(0 -109.975)" fill="#fd6d47"/>
    <path id="Path_4573" data-name="Path 4573" d="M61.849,236.171a10.032,10.032,0,1,1,10.035-10.032,10.044,10.044,0,0,1-10.035,10.032m0-15.287a5.254,5.254,0,1,0,5.257,5.254,5.26,5.26,0,0,0-5.257-5.254" transform="translate(-33.247 -138.66)" fill="#fd6d47"/>
    <path id="Path_4574" data-name="Path 4574" d="M67.35,279.986H62.572v-8.821a5.26,5.26,0,0,0-5.254-5.254H45.851a5.261,5.261,0,0,0-5.255,5.254v8.821H35.817v-8.821a10.045,10.045,0,0,1,10.034-10.033H57.318A10.044,10.044,0,0,1,67.35,271.165Z" transform="translate(-22.981 -167.55)" fill="#fd6d47"/>
    <path id="Path_4575" data-name="Path 4575" d="M294.721,248.177h29.773c.207-2.816.84-6.479,2.613-8.836,10.984-14.148,11.689-27.624,11.689-28.578a29.164,29.164,0,0,0-58.328,0c0,.954.686,14.422,11.684,28.578,1.769,2.356,2.38,6.02,2.569,8.836" transform="translate(-179.957 -116.521)" fill="#fd8f71"/>
    <rect id="Rectangle_782" data-name="Rectangle 782" width="4.778" height="32.567" transform="translate(113.794 99.948) rotate(-10.218)" fill="#fd6d47"/>
    <rect id="Rectangle_783" data-name="Rectangle 783" width="32.568" height="4.778" transform="matrix(0.177, -0.984, 0.984, 0.177, 135.081, 131.153)" fill="#fd6d47"/>
    <path id="Path_4576" data-name="Path 4576" d="M345.948,283.895h-2.259l-3.325-1.783-3.317,1.783h-2.262l-3.315-1.781-3.315,1.781h-2.262l-4.447-2.389,2.261-4.209,3.316,1.782,3.315-1.781H332.6l3.316,1.781,3.317-1.782h2.26l3.325,1.784,3.326-1.784,2.258,4.211Z" transform="translate(-206.251 -177.921)" fill="#fd6d47"/>
    <rect id="Rectangle_784" data-name="Rectangle 784" width="37.925" height="4.778" transform="translate(110.713 129.61)" fill="#fd6d47"/>
    <rect id="Rectangle_785" data-name="Rectangle 785" width="37.925" height="4.778" transform="translate(110.713 136.977)" fill="#fd6d47"/>
    <rect id="Rectangle_786" data-name="Rectangle 786" width="24.801" height="4.778" transform="translate(117.274 144.346)" fill="#fd6d47"/>
    <rect id="Rectangle_787" data-name="Rectangle 787" width="4.778" height="7.737" transform="translate(112.725 132.391)" fill="#fd6d47"/>
    <path id="Path_4577" data-name="Path 4577" d="M133.016,110.435l-1.461-4.549,4.549-1.461,1.461,4.549Zm9.1-2.922-1.461-4.549L145.2,101.5l1.461,4.549Zm9.1-2.923-1.462-4.549,4.549-1.462,1.461,4.549Zm9.1-2.922-1.461-4.549,4.549-1.462,1.461,4.549Zm9.1-2.922-1.461-4.55,4.549-1.461,1.461,4.549Zm9.1-2.923-1.461-4.549,4.549-1.461,1.461,4.549Zm9.1-2.923-1.461-4.549,4.549-1.461,1.461,4.55Zm9.1-2.922-1.461-4.549,4.549-1.461,1.461,4.55Zm9.1-2.923L204.343,82.5l4.549-1.461,1.461,4.549Zm9.1-2.923-1.461-4.549,4.549-1.462,1.462,4.549Zm9.1-2.922-1.461-4.549L227.09,75.2l1.461,4.549Zm9.1-2.922-1.461-4.549,4.549-1.462,1.461,4.549Zm9.1-2.923-1.461-4.549,4.549-1.461,1.461,4.549Zm9.1-2.923-1.461-4.549,4.549-1.461,1.461,4.549Zm9.1-2.922-1.461-4.549,4.022-1.292,1.461,4.55Z" transform="translate(-84.41 -40.857)" fill="#fd6d47"/>
    <path id="Path_4578" data-name="Path 4578" d="M550.066,159.327l-2.122-4.282,4.282-2.122,2.121,4.282Zm-4.243-8.563-2.122-4.281,4.282-2.122,2.121,4.281ZM541.58,142.2l-2.122-4.281,4.281-2.122,2.122,4.282Zm-4.243-8.562-2.122-4.281,4.281-2.122,2.121,4.281Zm-4.243-8.563-2.122-4.281,4.281-2.122,2.121,4.281Zm-4.243-8.562-2.122-4.281,4.281-2.122,2.122,4.281Zm-4.243-8.563-2.122-4.281,4.282-2.122,2.122,4.281Zm-4.243-8.562-2.121-4.282,4.281-2.122,2.121,4.282Zm-4.243-8.563L514,86.544l4.281-2.122L520.4,88.7Zm-4.243-8.562-2.122-4.282,4.281-2.122,2.122,4.282ZM507.633,73.7l-2.122-4.281,4.281-2.122,2.121,4.281Z" transform="translate(-324.352 -43.18)" fill="#fd6d47"/>
    <path id="Path_4579" data-name="Path 4579" d="M484.262,27.675A27.679,27.679,0,1,1,456.584,0a27.679,27.679,0,0,1,27.678,27.675" transform="translate(-275.199 0)" fill="#fdb9a5"/>
    <path id="Path_4580" data-name="Path 4580" d="M488.41,62.409a9.9,9.9,0,1,1,9.9-9.9,9.914,9.914,0,0,1-9.9,9.9m0-15.028a5.125,5.125,0,1,0,5.125,5.126,5.13,5.13,0,0,0-5.125-5.126" transform="translate(-307.026 -27.335)" fill="#fd6d47"/>
    <path id="Path_4581" data-name="Path 4581" d="M478.318,105a21.491,21.491,0,0,1-14.788-5.884l-.75-.707V96.769a9.915,9.915,0,0,1,9.9-9.9h11.269a9.914,9.914,0,0,1,9.9,9.9v1.642l-.75.707A21.491,21.491,0,0,1,478.318,105m-10.742-8.679a16.742,16.742,0,0,0,21.483,0,5.132,5.132,0,0,0-5.106-4.679H472.685a5.133,5.133,0,0,0-5.108,4.679" transform="translate(-296.935 -55.736)" fill="#fd6d47"/>
    <path id="Path_4582" data-name="Path 4582" d="M610.985,362.252a23.779,23.779,0,1,1,23.777-23.779,23.808,23.808,0,0,1-23.777,23.779m0-42.78a19,19,0,1,0,19,19,19.024,19.024,0,0,0-19-19" transform="translate(-376.768 -201.917)" fill="#fd6d47"/>
    <path id="Path_4583" data-name="Path 4583" d="M635.831,366.23a9.9,9.9,0,1,1,9.9-9.9,9.914,9.914,0,0,1-9.9,9.9m0-15.028a5.125,5.125,0,1,0,5.126,5.126,5.131,5.131,0,0,0-5.126-5.126" transform="translate(-401.615 -222.276)" fill="#fd6d47"/>
    <path id="Path_4584" data-name="Path 4584" d="M641.283,404.535H636.5v-.611a5.131,5.131,0,0,0-5.127-5.124H620.108a5.13,5.13,0,0,0-5.126,5.124v.611H610.2v-.611a9.915,9.915,0,0,1,9.9-9.9h11.269a9.915,9.915,0,0,1,9.906,9.9Z" transform="translate(-391.527 -252.817)" fill="#fd6d47"/>
  </g>
</svg>
