<svg id="Group_715" data-name="Group 715" xmlns="http://www.w3.org/2000/svg" xmlns:xlink="http://www.w3.org/1999/xlink" width="164.983" height="181.908" viewBox="0 0 164.983 181.908">
  <defs>
    <clipPath id="clip-path">
      <rect id="Rectangle_505" data-name="Rectangle 505" width="164.983" height="181.908" fill="none"/>
    </clipPath>
  </defs>
  <g id="Group_712" data-name="Group 712" clip-path="url(#clip-path)">
    <path id="Path_4231" data-name="Path 4231" d="M401.509,403.906h4.071v-.552a5.8,5.8,0,0,0-5.795-5.8h-4.073v.551a5.8,5.8,0,0,0,5.8,5.8" transform="translate(-268.555 -269.808)" fill="#fde8e4"/>
    <path id="Path_4232" data-name="Path 4232" d="M430.533,401.7h-4.285V389.124a5.169,5.169,0,0,1,5.163-5.163v4.285a.88.88,0,0,0-.879.879Z" transform="translate(-289.279 -260.58)" fill="#fdc9bb"/>
    <path id="Path_4233" data-name="Path 4233" d="M380.92,421.88c5.016,2.075,6.176,1.763,10.417-.021,9.98-4.377,20.535-1.132,19.049,18.173-1,9.752-6,18.219-17.5,18.241a22.624,22.624,0,0,1-6.672-.969,22.594,22.594,0,0,1-6.674,1c-11.493.023-16.527-8.418-17.575-18.169-1.578-19.295,8.954-22.586,18.957-18.258" transform="translate(-245.544 -285.132)" fill="#fd7754"/>
    <path id="Path_4234" data-name="Path 4234" d="M436.737,403.02v4.893h10.7a5.463,5.463,0,0,0,5.462-5.462v-4.892H442.2a5.461,5.461,0,0,0-5.462,5.461" transform="translate(-296.398 -269.809)" fill="#fde8e4"/>
    <path id="Path_4235" data-name="Path 4235" d="M189.65,360.878h-4.285v-5.219a.177.177,0,0,0-.178-.176H154.652a.177.177,0,0,0-.178.176v5.219H150.19v-5.219a4.467,4.467,0,0,1,4.462-4.461h30.535a4.467,4.467,0,0,1,4.462,4.461Z" transform="translate(-101.928 -238.345)" fill="#fdc9bb"/>
    <rect id="Rectangle_482" data-name="Rectangle 482" width="56.173" height="7.589" transform="translate(39.906 144.252)" fill="#fda28a"/>
    <rect id="Rectangle_483" data-name="Rectangle 483" width="52.065" height="22.184" transform="translate(41.958 122.068)" fill="#fda28a"/>
    <path id="Path_4236" data-name="Path 4236" d="M148.032,193.2h-4.285V175.913a49.353,49.353,0,0,1-20.787-56.155l.463-1.516H176l.464,1.515a49.345,49.345,0,0,1-20.782,56.156v12.653H151.4V173.477l1.059-.62a44.793,44.793,0,0,0,21.891-38.588,45.285,45.285,0,0,0-1.544-11.742h-46.18a45.327,45.327,0,0,0-1.543,11.742,44.8,44.8,0,0,0,21.893,38.588l1.059.62Z" transform="translate(-81.98 -80.247)" fill="#fdc9bb"/>
    <path id="Path_4237" data-name="Path 4237" d="M255.757,177.1a2.143,2.143,0,0,1-.7-4.169c14.054-4.827,23.773-18.681,24.687-34.875H265.819a2.142,2.142,0,1,1,0-4.285h18.3l-.017,2.159c-.147,18.925-11.259,35.423-27.649,41.053a2.135,2.135,0,0,1-.7.117" transform="translate(-172.118 -90.786)" fill="#fdc9bb"/>
    <path id="Path_4238" data-name="Path 4238" d="M101.4,177.106a2.139,2.139,0,0,1-.7-.117c-16.392-5.625-27.506-22.122-27.655-41.051l-.017-2.159h18.3a2.142,2.142,0,0,1,0,4.285H77.4c.915,16.2,10.637,30.05,24.693,34.873a2.143,2.143,0,0,1-.7,4.169" transform="translate(-49.562 -90.791)" fill="#fdc9bb"/>
    <rect id="Rectangle_484" data-name="Rectangle 484" width="56.173" height="4.285" transform="translate(39.906 142.11)" fill="#fdc9bb"/>
    <path id="Path_4239" data-name="Path 4239" d="M173.612,143.129l-7.385-4.684-7.385,4.684V117.535h14.77Z" transform="translate(-107.801 -79.767)" fill="#fde8e4"/>
    <path id="Path_4240" data-name="Path 4240" d="M166.288,495.488h-58.4V491.2h50.258a11.548,11.548,0,0,1,0-14.527H92.683a7.263,7.263,0,1,0,0,14.527v4.285a11.548,11.548,0,1,1,0-23.1h73.606v4.175l-1.464.489a7.256,7.256,0,0,0,0,13.768l1.464.489Z" transform="translate(-55.063 -320.595)" fill="#fdc9bb"/>
    <rect id="Rectangle_485" data-name="Rectangle 485" width="66.054" height="4.285" transform="translate(37.465 161.248)" fill="#fdc9bb"/>
    <path id="Path_4241" data-name="Path 4241" d="M134.286,531.492l-6.924-4.393-6.923,4.393V515.107h13.847Z" transform="translate(-81.737 -349.584)" fill="#fce8e4"/>
    <rect id="Rectangle_486" data-name="Rectangle 486" width="5.355" height="9.752" transform="translate(65.055 0)" fill="#fdc9bb"/>
    <rect id="Rectangle_487" data-name="Rectangle 487" width="5.356" height="9.752" transform="matrix(0.966, -0.259, 0.259, 0.966, 47.616, 2.999)" fill="#fdc9bb"/>
    <rect id="Rectangle_488" data-name="Rectangle 488" width="5.356" height="9.755" transform="translate(31.548 10.413) rotate(-30.019)" fill="#fdc9bb"/>
    <rect id="Rectangle_489" data-name="Rectangle 489" width="5.356" height="9.752" transform="matrix(0.707, -0.707, 0.707, 0.707, 17.948, 21.729)" fill="#fdc9bb"/>
    <rect id="Rectangle_490" data-name="Rectangle 490" width="5.355" height="9.754" transform="translate(7.737 36.182) rotate(-60.003)" fill="#fdc9bb"/>
    <rect id="Rectangle_491" data-name="Rectangle 491" width="5.355" height="9.755" transform="matrix(0.259, -0.966, 0.966, 0.259, 1.615, 52.784)" fill="#fdc9bb"/>
    <rect id="Rectangle_492" data-name="Rectangle 492" width="9.753" height="5.355" transform="translate(0.001 65.05)" fill="#fdc9bb"/>
    <rect id="Rectangle_493" data-name="Rectangle 493" width="9.752" height="5.356" transform="translate(1.615 82.671) rotate(-14.993)" fill="#fdc9bb"/>
    <rect id="Rectangle_494" data-name="Rectangle 494" width="9.756" height="5.356" transform="translate(7.735 99.272) rotate(-29.986)" fill="#fdc9bb"/>
    <rect id="Rectangle_495" data-name="Rectangle 495" width="9.752" height="5.356" transform="translate(17.944 113.727) rotate(-44.99)" fill="#fdc9bb"/>
    <rect id="Rectangle_496" data-name="Rectangle 496" width="5.356" height="9.753" transform="translate(106.834 110.619) rotate(-44.975)" fill="#fdc9bb"/>
    <rect id="Rectangle_497" data-name="Rectangle 497" width="5.356" height="9.757" transform="translate(116.6 99.039) rotate(-60)" fill="#fdc9bb"/>
    <rect id="Rectangle_498" data-name="Rectangle 498" width="5.355" height="9.753" transform="matrix(0.259, -0.966, 0.966, 0.259, 123.039, 85.325)" fill="#fdc9bb"/>
    <rect id="Rectangle_499" data-name="Rectangle 499" width="9.755" height="5.355" transform="translate(125.709 65.055)" fill="#fdc9bb"/>
    <rect id="Rectangle_500" data-name="Rectangle 500" width="9.751" height="5.356" transform="matrix(0.966, -0.259, 0.259, 0.966, 123.043, 50.14)" fill="#fdc9bb"/>
    <rect id="Rectangle_501" data-name="Rectangle 501" width="9.755" height="5.356" transform="translate(116.603 36.424) rotate(-29.986)" fill="#fdc9bb"/>
    <rect id="Rectangle_502" data-name="Rectangle 502" width="9.754" height="5.356" transform="translate(106.837 24.843) rotate(-45)" fill="#fdc9bb"/>
    <rect id="Rectangle_503" data-name="Rectangle 503" width="9.753" height="5.356" transform="translate(94.402 16.185) rotate(-60.014)" fill="#fdc9bb"/>
    <rect id="Rectangle_504" data-name="Rectangle 504" width="9.752" height="5.356" transform="matrix(0.259, -0.966, 0.966, 0.259, 80.154, 11.036)" fill="#fdc9bb"/>
  </g>
</svg>
