<svg xmlns="http://www.w3.org/2000/svg" xmlns:xlink="http://www.w3.org/1999/xlink" width="186.649" height="167.095" viewBox="0 0 186.649 167.095">
  <defs>
    <clipPath id="clip-path">
      <rect id="Rectangle_751" data-name="Rectangle 751" width="186.649" height="167.095" fill="none"/>
    </clipPath>
  </defs>
  <g id="Group_956" data-name="Group 956" clip-path="url(#clip-path)">
    <path id="Path_4543" data-name="Path 4543" d="M558.958,311.254H547.819V286.9h11.139a3.651,3.651,0,0,1,3.56,3.728v16.9a3.651,3.651,0,0,1-3.56,3.729M552,307.069h6.328V291.086H552Z" transform="translate(-375.869 -196.848)" fill="#fd6d47"/>
    <path id="Path_4544" data-name="Path 4544" d="M31.89,319.577l-4.151-.533A32.577,32.577,0,0,0,28,314.9a32.6,32.6,0,0,0-.294-4.372l4.147-.564a36.726,36.726,0,0,1,.333,4.936,36.784,36.784,0,0,1-.3,4.673" transform="translate(-19.011 -212.675)" fill="#fd6d47"/>
    <path id="Path_4545" data-name="Path 4545" d="M155.163,122.828v-17.2a9.393,9.393,0,0,1,8.308-9.335c2.561,0,83.351.019,87.532,0a9.4,9.4,0,0,0-8.313,9.335V222.259h-.029l.029,1.571a9.423,9.423,0,0,1-8.336,9.336c-2.562,0-83.356-.017-87.537,0a9.4,9.4,0,0,0,8.313-9.336v-2.143h.034V113.441" transform="translate(-100.733 -66.072)" fill="#fdcdc1"/>
    <path id="Path_4546" data-name="Path 4546" d="M452.263,115.715v-10.23a9.4,9.4,0,0,1,18.809,0v10.23Z" transform="translate(-310.306 -65.924)" fill="#fd8f71"/>
    <path id="Path_4547" data-name="Path 4547" d="M205.617,487.552v4.725a9.4,9.4,0,0,0,8.313,9.336c-4.177-.017-84.974,0-87.532,0a9.4,9.4,0,0,1-8.309-9.336v-4.725Z" transform="translate(-81.023 -334.519)" fill="#fd8f71"/>
    <path id="Path_4548" data-name="Path 4548" d="M250.393,124.724l.441-18.646,4.184.1L254.7,119.5a75.548,75.548,0,0,0,12.672-4.671c9.353-4.318,10.166-7.207,10.209-10.028.021-2.245.043-3.451.065-4.658s.043-2.395.065-4.634l4.185.04c-.021,2.256-.043,3.463-.065,4.67s-.043,2.4-.065,4.634c-.089,5.833-3.514,9.564-12.64,13.776a74.387,74.387,0,0,1-16.161,5.569Z" transform="translate(-171.799 -65.528)" fill="#fd6d47"/>
    <path id="Path_4549" data-name="Path 4549" d="M196.262,125.9l-2.493-.563a74.449,74.449,0,0,1-16.051-5.882c-9.043-4.386-12.4-8.182-12.369-14,.022-2.263.044-3.225.066-4.156s.043-1.869.064-4.112l4.185.04c-.022,2.271-.044,3.235-.065,4.168-.021.917-.043,1.865-.065,4.09-.013,2.809.744,5.713,10.012,10.209a75.363,75.363,0,0,0,12.655,4.936l.316-13.4,4.184.1Z" transform="translate(-113.449 -66.681)" fill="#fd6d47"/>
    <path id="Path_4550" data-name="Path 4550" d="M134.824,43.556,78.6,21.237,135.243,0,191.46,22.324Zm-44.6-22.208,44.642,17.722,44.972-16.859L135.2,4.485Z" transform="translate(-53.93 0.001)" fill="#fd6d47"/>
    <path id="Path_4551" data-name="Path 4551" d="M147.347,82.028,143.162,82l.131-18.554,30.063-9.616,1.275,3.986-27.175,8.692Z" transform="translate(-98.226 -36.933)" fill="#fd6d47"/>
    <path id="Path_4552" data-name="Path 4552" d="M241.828,47.121H241.7c-4.425-.045-7.616-2.137-7.591-4.974h0a4.445,4.445,0,0,1,2.81-3.823,11.035,11.035,0,0,1,4.875-1c4.423.043,7.614,2.132,7.588,4.967-.03,2.813-3.2,4.831-7.549,4.831m-3.275-4.931a7.463,7.463,0,0,0,6.376.06,6.347,6.347,0,0,0-3.181-.742,6.225,6.225,0,0,0-3.2.682" transform="translate(-160.624 -25.608)" fill="#fd6d47"/>
    <path id="Path_4553" data-name="Path 4553" d="M141.14,157.794H128.154V146.629c0-4.012,2.913-7.277,6.492-7.277s6.493,3.264,6.493,7.277Zm-8.8-4.185h4.615v-6.981c0-1.676-1.057-3.092-2.308-3.092s-2.307,1.416-2.307,3.092Z" transform="translate(-87.929 -95.612)" fill="#fd6d47"/>
    <path id="Path_4554" data-name="Path 4554" d="M362.259,411.189l-7.373-5.09-7.373,5.09V395.82H351.7v7.394l3.188-2.2,3.188,2.2V395.82h4.185Z" transform="translate(-238.435 -271.58)" fill="#fd6d47"/>
    <path id="Path_4555" data-name="Path 4555" d="M350.466,368.729a9.394,9.394,0,1,1,9.394-9.4,9.408,9.408,0,0,1-9.394,9.4m0-14.6a5.209,5.209,0,1,0,5.209,5.207,5.216,5.216,0,0,0-5.209-5.207" transform="translate(-234.013 -240.101)" fill="#fd6d47"/>
    <rect id="Rectangle_744" data-name="Rectangle 744" width="4.185" height="4.185" transform="translate(114.358 117.365)" fill="#fd6d47"/>
    <rect id="Rectangle_745" data-name="Rectangle 745" width="34.417" height="4.185" transform="translate(78.184 69.133)" fill="#fd6d47"/>
    <rect id="Rectangle_746" data-name="Rectangle 746" width="57.969" height="4.185" transform="translate(66.408 79.648)" fill="#fd6d47"/>
    <rect id="Rectangle_747" data-name="Rectangle 747" width="57.969" height="4.185" transform="translate(66.408 89.997)" fill="#fd6d47"/>
    <rect id="Rectangle_748" data-name="Rectangle 748" width="57.969" height="4.185" transform="translate(66.408 100.347)" fill="#fd6d47"/>
    <rect id="Rectangle_749" data-name="Rectangle 749" width="34.458" height="4.185" transform="translate(66.409 110.695)" fill="#fd6d47"/>
    <rect id="Rectangle_750" data-name="Rectangle 750" width="22.884" height="4.185" transform="translate(66.408 121.043)" fill="#fd6d47"/>
  </g>
</svg>
