<svg xmlns="http://www.w3.org/2000/svg" xmlns:xlink="http://www.w3.org/1999/xlink" width="216" height="216" viewBox="0 0 216 216">
  <defs>
    <clipPath id="clip-path">
      <rect id="Rectangle_734" data-name="Rectangle 734" width="184.497" height="165.865" fill="none"/>
    </clipPath>
  </defs>
  <g id="Group_880" data-name="Group 880" transform="translate(-682 -5456)">
    <path id="Path_4456" data-name="Path 4456" d="M0,0H216V216H0Z" transform="translate(682 5456)" fill="#fff" opacity="0.004"/>
    <g id="Group_886" data-name="Group 886" transform="translate(697.751 5481.067)">
      <g id="Group_885" data-name="Group 885" clip-path="url(#clip-path)">
        <path id="Path_4457" data-name="Path 4457" d="M155.165,128.062H79.921v-4.153h71.091V50.7a1.451,1.451,0,0,0-1.45-1.449H27.91A1.45,1.45,0,0,0,26.463,50.7V103.56H22.31V50.7a5.607,5.607,0,0,1,5.6-5.6H149.562a5.609,5.609,0,0,1,5.6,5.6Z" fill="#ff7955"/>
        <rect id="Rectangle_705" data-name="Rectangle 705" width="112.591" height="62.433" transform="translate(32.376 55.326)" fill="#fff1eb"/>
        <path id="Path_4458" data-name="Path 4458" d="M149.8,143.244H79.921v-4.155H149.8c.735,0,1.247-1.131,1.247-2.146V125.911H155.2v11.034c0,3.1-2.02,6.3-5.4,6.3" fill="#ff7955"/>
        <path id="Path_4459" data-name="Path 4459" d="M108.068,159.924c-1.091-.474-2.584-1.144-3.506-1.649l-.118-.066c-2.04-1.131-2.57-1.958-3.155-4.919a41.97,41.97,0,0,1-.32-7.673c.021-1.591.041-3.093-.036-4.05l4.139-.336c.094,1.152.072,2.75.05,4.442a40.9,40.9,0,0,0,.242,6.811,6.61,6.61,0,0,0,.456,1.721c.059.052.38.229.638.372l.111.061c.6.329,1.725.855,3.155,1.477Z" fill="#ff7955"/>
        <rect id="Rectangle_706" data-name="Rectangle 706" width="32.658" height="4.153" transform="translate(79.921 155.707)" fill="#ff7955"/>
        <path id="Path_4460" data-name="Path 4460" d="M93.02,107.335a24.6,24.6,0,1,1,24.6-24.6,24.6,24.6,0,0,1-24.6,24.6m0-45.039a20.443,20.443,0,1,0,20.44,20.446v0A20.466,20.466,0,0,0,93.02,62.295" fill="#ff7955"/>
        <path id="Path_4461" data-name="Path 4461" d="M87.976,91.8l-7.414-7.415L83.5,81.449l4.477,4.477,14.386-14.387,2.936,2.937Z" fill="#ff7955"/>
        <path id="Path_4462" data-name="Path 4462" d="M76.3,165.865H.462V123.729H4.615v37.983h67.53V123.729H76.3Z" fill="#ff7955"/>
        <rect id="Rectangle_707" data-name="Rectangle 707" width="76.761" height="16.565" transform="translate(0 107.29)" fill="#fdb1a3"/>
        <rect id="Rectangle_708" data-name="Rectangle 708" width="4.153" height="12.803" transform="translate(12.198 101.709)" fill="#ff7955"/>
        <rect id="Rectangle_709" data-name="Rectangle 709" width="4.153" height="12.803" transform="translate(60.41 101.709)" fill="#ff7955"/>
        <rect id="Rectangle_710" data-name="Rectangle 710" width="4.865" height="4.153" transform="translate(12.674 130.797)" fill="#ff7955"/>
        <rect id="Rectangle_711" data-name="Rectangle 711" width="4.865" height="4.153" transform="translate(21.831 130.797)" fill="#ff7955"/>
        <rect id="Rectangle_712" data-name="Rectangle 712" width="4.865" height="4.153" transform="translate(30.984 130.797)" fill="#ff7955"/>
        <rect id="Rectangle_713" data-name="Rectangle 713" width="4.865" height="4.153" transform="translate(40.141 130.797)" fill="#ff7955"/>
        <rect id="Rectangle_714" data-name="Rectangle 714" width="4.865" height="4.153" transform="translate(49.297 130.797)" fill="#ff7955"/>
        <rect id="Rectangle_715" data-name="Rectangle 715" width="4.865" height="4.153" transform="translate(58.451 130.797)" fill="#ff7955"/>
        <rect id="Rectangle_716" data-name="Rectangle 716" width="4.865" height="4.153" transform="translate(12.674 140.214)" fill="#ff7955"/>
        <rect id="Rectangle_717" data-name="Rectangle 717" width="4.865" height="4.153" transform="translate(21.831 140.214)" fill="#ff7955"/>
        <rect id="Rectangle_718" data-name="Rectangle 718" width="4.865" height="4.153" transform="translate(30.984 140.214)" fill="#ff7955"/>
        <rect id="Rectangle_719" data-name="Rectangle 719" width="4.865" height="4.153" transform="translate(40.141 140.214)" fill="#ff7955"/>
        <rect id="Rectangle_720" data-name="Rectangle 720" width="4.865" height="4.153" transform="translate(49.297 140.214)" fill="#ff7955"/>
        <rect id="Rectangle_721" data-name="Rectangle 721" width="4.865" height="4.153" transform="translate(58.451 140.214)" fill="#ff7955"/>
        <rect id="Rectangle_722" data-name="Rectangle 722" width="4.865" height="4.153" transform="translate(12.674 149.632)" fill="#ff7955"/>
        <rect id="Rectangle_723" data-name="Rectangle 723" width="4.865" height="4.153" transform="translate(21.831 149.632)" fill="#ff7955"/>
        <rect id="Rectangle_724" data-name="Rectangle 724" width="4.865" height="4.153" transform="translate(30.984 149.632)" fill="#ff7955"/>
        <rect id="Rectangle_725" data-name="Rectangle 725" width="4.865" height="4.153" transform="translate(40.141 149.632)" fill="#ff7955"/>
        <rect id="Rectangle_726" data-name="Rectangle 726" width="4.865" height="4.153" transform="translate(49.297 149.632)" fill="#ff7955"/>
        <rect id="Rectangle_727" data-name="Rectangle 727" width="4.865" height="4.153" transform="translate(58.451 149.632)" fill="#ff7955"/>
        <path id="Path_4463" data-name="Path 4463" d="M184.282,90.5V49.837a5.137,5.137,0,0,0-5.137-5.136H177a5.135,5.135,0,0,0-5.135,5.135h0V90.5Z" fill="#ffae8a"/>
        <path id="Path_4464" data-name="Path 4464" d="M182.786,132.441V82.579c0-2.835-1.746-5.135-3.9-5.135h-1.62c-2.152,0-3.9,2.3-3.9,5.135v49.863Z" fill="#ffae8a"/>
        <path id="Path_4465" data-name="Path 4465" d="M167.981,83.649h-4.153V59.423a7.22,7.22,0,0,1,7.214-7.21h13.239v4.153H171.039a3.063,3.063,0,0,0-3.06,3.057Z" fill="#ff7955"/>
        <rect id="Rectangle_728" data-name="Rectangle 728" width="12.628" height="4.153" transform="translate(171.869 88.634)" fill="#ff7955"/>
        <rect id="Rectangle_729" data-name="Rectangle 729" width="12.628" height="4.153" transform="translate(171.869 130.283)" fill="#ff7955"/>
        <path id="Path_4466" data-name="Path 4466" d="M180.287,148.851h-4.153c0-2.871-1.416-6.439-2.253-6.937l-1.519-.386v-7.984h4.152v5.173c2.616,2.125,3.772,7.4,3.772,10.139" fill="#ff7955"/>
        <path id="Path_4467" data-name="Path 4467" d="M180.287,148.851h-4.153c0-2.744,1.156-8.013,3.772-10.139v-5.168h4.153v7.984l-1.518.386c-.838.5-2.254,4.065-2.254,6.937" fill="#ff7955"/>
        <rect id="Rectangle_730" data-name="Rectangle 730" width="73.318" height="4.153" transform="translate(60.248 1.917)" fill="#ff7955"/>
        <rect id="Rectangle_731" data-name="Rectangle 731" width="60.885" height="4.153" transform="translate(60.248 10.401)" fill="#ff7955"/>
        <path id="Path_4468" data-name="Path 4468" d="M47.965,13.707,42.889,9.019l2.819-3.05L47.5,7.625,53.589,0l3.247,2.59Z" fill="#ff7955"/>
        <rect id="Rectangle_732" data-name="Rectangle 732" width="73.318" height="4.153" transform="translate(60.248 24.19)" fill="#ff7955"/>
        <rect id="Rectangle_733" data-name="Rectangle 733" width="60.885" height="4.153" transform="translate(60.248 32.675)" fill="#ff7955"/>
        <path id="Path_4469" data-name="Path 4469" d="M47.964,35.982l-5.071-4.69,2.82-3.049L47.5,29.9l6.085-7.63,3.247,2.59Z" fill="#ff7955"/>
      </g>
    </g>
  </g>
</svg>
