<?xml version="1.0" standalone="no"?>
<!DOCTYPE svg PUBLIC "-//W3C//DTD SVG 20010904//EN"
 "http://www.w3.org/TR/2001/REC-SVG-20010904/DTD/svg10.dtd">
<svg version="1.0" xmlns="http://www.w3.org/2000/svg"
 width="700.000000pt" height="700.000000pt" viewBox="0 0 700.000000 700.000000"
 preserveAspectRatio="xMidYMid meet">
<metadata>
Created by potrace 1.14, written by Peter Selinger 2001-2017
</metadata>
<g transform="translate(0.000000,700.000000) scale(0.100000,-0.100000)"
fill="#000000" stroke="none">
<path d="M4302 6580 l-823 -329 -807 323 c-444 178 -808 322 -810 321 -2 -2
-4 -584 -3 -706 l1 -47 207 -82 c115 -45 222 -88 238 -95 17 -7 107 -43 200
-80 94 -37 184 -73 200 -80 133 -58 768 -305 784 -305 11 0 23 5 26 10 3 6 13
10 21 10 9 0 40 11 70 25 30 14 57 25 60 25 3 0 20 6 37 14 18 8 347 139 732
293 l700 278 0 378 c0 207 -2 377 -5 377 -3 -1 -375 -149 -828 -330z"/>
<path d="M6465 6041 c-86 -32 -1077 -427 -1170 -466 -16 -7 -102 -41 -190 -75
-88 -35 -173 -69 -190 -76 -16 -7 -246 -99 -510 -204 -264 -105 -489 -195
-500 -200 -11 -5 -56 -23 -100 -40 -44 -17 -89 -35 -100 -40 -52 -25 -227 -90
-240 -90 -12 0 -1476 581 -1600 635 -16 7 -298 119 -625 249 -327 130 -606
242 -620 248 -30 13 -52 22 -103 42 l-37 15 5 -622 c3 -342 7 -980 10 -1417 5
-885 16 -2423 19 -2599 l1 -113 300 -119 c165 -66 309 -123 320 -129 11 -5
153 -61 315 -125 162 -64 309 -123 325 -130 17 -7 127 -52 245 -98 118 -47
493 -196 834 -332 l618 -246 522 207 c286 113 535 213 551 220 34 15 1095 437
1580 628 340 135 340 135 397 159 l37 16 -4 298 c-5 311 -10 933 -20 2293 -4
443 -8 985 -10 1205 -2 220 -4 518 -5 663 -1 144 -3 262 -4 262 0 -1 -23 -9
-51 -19z m-625 -1258 c3 -609 10 -1631 15 -2280 l5 -691 -73 -30 c-39 -17
-214 -87 -387 -156 -173 -70 -324 -131 -335 -136 -11 -5 -51 -21 -90 -36 -38
-14 -83 -32 -100 -40 -16 -7 -257 -103 -535 -214 -278 -111 -518 -208 -535
-215 -16 -7 -99 -40 -182 -74 l-153 -61 -577 230 c-318 127 -587 235 -598 240
-21 9 -58 24 -600 239 -181 72 -339 135 -350 140 -11 5 -46 19 -78 31 -31 12
-59 26 -62 30 -3 4 -7 288 -9 631 -6 759 -17 2178 -19 2422 -1 98 0 184 3 191
4 9 124 -35 425 -156 231 -93 427 -172 435 -175 43 -16 929 -367 955 -378 17
-7 107 -43 200 -80 94 -37 184 -73 200 -80 70 -31 70 -31 376 90 162 64 303
121 314 126 11 4 270 108 575 229 305 121 564 225 575 230 11 5 97 39 190 76
94 36 184 72 200 79 29 13 208 84 212 85 0 0 2 -120 3 -267z"/>
<path d="M2930 2715 c0 -481 2 -875 5 -875 3 0 146 84 318 188 171 103 317
189 322 192 6 3 144 86 308 185 163 99 305 185 315 190 75 44 123 73 159 96
l43 26 -133 78 c-72 42 -143 85 -157 94 -14 10 -67 42 -118 72 -51 30 -105 61
-120 70 -317 191 -935 559 -938 559 -2 0 -4 -394 -4 -875z"/>
</g>
</svg>
