<svg id="Group_813" data-name="Group 813" xmlns="http://www.w3.org/2000/svg" xmlns:xlink="http://www.w3.org/1999/xlink" width="22.4" height="28" viewBox="0 0 22.4 28">
  <defs>
    <clipPath id="clip-path">
      <rect id="Rectangle_646" data-name="Rectangle 646" width="22.4" height="28" fill="#fff"/>
    </clipPath>
  </defs>
  <g id="Group_813-2" data-name="Group 813" clip-path="url(#clip-path)">
    <path id="Path_4435" data-name="Path 4435" d="M0,23.8V21H2.8V11.2A8.2,8.2,0,0,1,4.55,6.037,8.076,8.076,0,0,1,9.1,3.08V2.1A2.025,2.025,0,0,1,9.713.613a2.112,2.112,0,0,1,2.975,0A2.025,2.025,0,0,1,13.3,2.1v.98a8.076,8.076,0,0,1,4.55,2.957A8.2,8.2,0,0,1,19.6,11.2V21h2.8v2.8ZM11.2,28a2.808,2.808,0,0,1-2.8-2.8H14A2.808,2.808,0,0,1,11.2,28M5.6,21H16.8V11.2a5.393,5.393,0,0,0-1.645-3.955A5.393,5.393,0,0,0,11.2,5.6,5.392,5.392,0,0,0,7.245,7.245,5.393,5.393,0,0,0,5.6,11.2Z" transform="translate(0 0)" fill="#fff"/>
  </g>
</svg>
