<svg xmlns="http://www.w3.org/2000/svg" version="1.1" xmlns:xlink="http://www.w3.org/1999/xlink" xmlns:svgjs="http://svgjs.dev/svgjs" width="60" height="60"><svg id="SvgjsSvg1001" xmlns="http://www.w3.org/2000/svg" version="1.1" viewBox="0 0 60 60">
  <!-- Generator: Adobe Illustrator 29.3.1, SVG Export Plug-In . SVG Version: 2.1.0 Build 151)  -->
  <defs>
    <style>
      .st0 {
        fill: #ff6841;
      }
    </style>
  </defs>
  <polygon class="st0" points="44 6.6 29.4 12.5 15.2 6.8 15.1 .1 29.4 5.8 44 0 44 6.6"></polygon>
  <path class="st0" d="M56.5,42.5l-.2-28.5v-6.5s-6.1,2.4-6.1,2.4l-20.8,8.3L9.1,10.1h0l-6.1-2.4v6.6s.2,28.7.2,28.7v6.6s6.2,2.4,6.2,2.4l11.7,4.7,8.2,3.3,8.2-3.3,12.9-5.2,6.1-2.4v-6.5ZM29.3,53.4l-20-8v-12.6c0,0-.1-6.5-.1-6.5v-9.5c0,0,11.9,4.8,11.9,4.8h0l8.2,3.3,8.2-3.3,12.7-5.1v10.1c0,0,.2,18.4.2,18.4l-21,8.4Z"></path>
  <polygon class="st0" points="37.5 37 30.7 41.1 24.6 44.7 24.6 29.2 37.5 37"></polygon>
</svg><style>@media (prefers-color-scheme: light) { :root { filter: none; } }
@media (prefers-color-scheme: dark) { :root { filter: none; } }
</style></svg>