<svg xmlns="http://www.w3.org/2000/svg" width="10" height="10" viewBox="0 0 10 10">
  <path id="play_circle_24dp_5F6368_FILL0_wght400_GRAD0_opsz24" d="M83.75-872.75l3.5-2.25-3.5-2.25ZM85-870a4.869,4.869,0,0,1-1.95-.394,5.048,5.048,0,0,1-1.588-1.069,5.048,5.048,0,0,1-1.069-1.587A4.869,4.869,0,0,1,80-875a4.868,4.868,0,0,1,.394-1.95,5.049,5.049,0,0,1,1.069-1.588,5.048,5.048,0,0,1,1.588-1.069A4.868,4.868,0,0,1,85-880a4.868,4.868,0,0,1,1.95.394,5.048,5.048,0,0,1,1.588,1.069,5.049,5.049,0,0,1,1.069,1.588A4.868,4.868,0,0,1,90-875a4.869,4.869,0,0,1-.394,1.95,5.049,5.049,0,0,1-1.069,1.587,5.048,5.048,0,0,1-1.588,1.069A4.869,4.869,0,0,1,85-870Zm0-1a3.861,3.861,0,0,0,2.838-1.163A3.861,3.861,0,0,0,89-875a3.861,3.861,0,0,0-1.162-2.838A3.861,3.861,0,0,0,85-879a3.861,3.861,0,0,0-2.838,1.162A3.861,3.861,0,0,0,81-875a3.861,3.861,0,0,0,1.162,2.838A3.861,3.861,0,0,0,85-871ZM85-875Z" transform="translate(-80 880)" fill="#fd5429" opacity="0.9"/>
</svg>
