<svg xmlns="http://www.w3.org/2000/svg" width="10" height="10" viewBox="0 0 10 10">
  <path id="schedule_24dp_5F6368_FILL0_wght400_GRAD0_opsz24_1_" data-name="schedule_24dp_5F6368_FILL0_wght400_GRAD0_opsz24 (1)" d="M86.65-872.65l.7-.7L85.5-875.2v-2.3h-1v2.7ZM85-870a4.869,4.869,0,0,1-1.95-.394,5.049,5.049,0,0,1-1.588-1.069,5.048,5.048,0,0,1-1.069-1.587A4.869,4.869,0,0,1,80-875a4.869,4.869,0,0,1,.394-1.95,5.048,5.048,0,0,1,1.069-1.587,5.049,5.049,0,0,1,1.588-1.069A4.869,4.869,0,0,1,85-880a4.869,4.869,0,0,1,1.95.394,5.049,5.049,0,0,1,1.588,1.069,5.048,5.048,0,0,1,1.069,1.587A4.869,4.869,0,0,1,90-875a4.869,4.869,0,0,1-.394,1.95,5.048,5.048,0,0,1-1.069,1.587,5.049,5.049,0,0,1-1.588,1.069A4.869,4.869,0,0,1,85-870ZM85-875Zm0,4a3.856,3.856,0,0,0,2.831-1.169A3.856,3.856,0,0,0,89-875a3.856,3.856,0,0,0-1.169-2.831A3.856,3.856,0,0,0,85-879a3.856,3.856,0,0,0-2.831,1.169A3.856,3.856,0,0,0,81-875a3.856,3.856,0,0,0,1.169,2.831A3.856,3.856,0,0,0,85-871Z" transform="translate(-80 880)" fill="#ff6841" opacity="0.805"/>
</svg>
