<svg xmlns="http://www.w3.org/2000/svg" width="25" height="25" viewBox="0 0 25 25">
  <g id="Group_638" data-name="Group 638" transform="translate(3984 -3680)">
    <rect id="Rectangle_401" data-name="Rectangle 401" width="25" height="25" transform="translate(-3984 3680)" fill="none"/>
    <path id="Path_4162" data-name="Path 4162" d="M9.95,11.2,7.8,9.1,6.4,10.5,9.95,14.05,15.6,8.4,14.2,6.95Zm3.6-8.65L15,4.95l2.75.6-.25,2.8,1.85,2.15L17.5,12.6l.25,2.8L15,16.05l-1.4,2.4-2.6-1.1-2.55,1.1L7,16.05l-2.75-.6L4.5,12.6,2.65,10.5,4.5,8.349l-.25-2.8L7,4.95l1.4-2.4,2.6,1.1ZM14.4,0,11,1.45,7.6,0,5.7,3.2,2.1,4l.35,3.7L0,10.5l2.45,2.8L2.1,17l3.6.8L7.6,21,11,19.55,14.4,21l1.9-3.2,3.6-.8-.35-3.7L22,10.5,19.55,7.7,19.9,4l-3.6-.8Z" transform="translate(-3982 3682)" fill="#fd5429"/>
  </g>
</svg>
