<svg xmlns="http://www.w3.org/2000/svg" width="40" height="40" viewBox="0 0 40 40">
  <g id="Group_951" data-name="Group 951" transform="translate(-1139 -7070)">
    <g id="Group_737" data-name="Group 737" transform="translate(1150.072 7080)">
      <path id="Path_4298" data-name="Path 4298" d="M60.169,0,54.923,1.773,49.8.037V2.062L54.923,3.8l5.246-1.781Z" transform="translate(-46.104)" fill="#ff6842"/>
      <path id="Path_4299" data-name="Path 4299" d="M11.516,35.43l4.23-1.709.024,3.426.041,6.216L8.786,46.21l-6.667-2.7-.033-4.267-.016-2.2-.024-3.228,4,1.618,2.738,1.106Zm4.222-3.913L8.794,34.324,2.037,31.591,0,30.766l.016,2.22.065,9.7L.1,44.906l2.038.825,3.92,1.585,2.738,1.106,2.73-1.106,4.311-1.742,2.021-.817-.016-2.2L17.775,32.9l-.016-2.2Z" transform="translate(0 -28.422)" fill="#ff6842"/>
      <path id="Path_4300" data-name="Path 4300" d="M63.391,100.374,59.269,104.5l-2.079-2.08L55.906,103.7l3.363,3.363,5.406-5.406Z" transform="translate(-50.871 -91.768)" fill="#ff6842"/>
    </g>
    <rect id="Rectangle_629" data-name="Rectangle 629" width="40" height="40" transform="translate(1139 7070)" fill="none"/>
  </g>
</svg>
