<?xml version="1.0" encoding="UTF-8"?>
<svg id="Warstwa_1" xmlns="http://www.w3.org/2000/svg" xmlns:xlink="http://www.w3.org/1999/xlink" version="1.1" viewBox="0 0 957.1 291.3">
  <!-- Generator: Adobe Illustrator 29.3.1, SVG Export Plug-In . SVG Version: 2.1.0 Build 151)  -->
  <defs>
    <style>
      .st0 {
        fill: #fff;
      }

      .st1 {
        fill: #ff6841;
      }
    </style>
  </defs>
  <polygon class="st1" points="187 42.8 122.6 68.6 59.8 43.4 59.7 14 122.6 39.2 186.9 13.5 187 42.8"/>
  <path class="st1" d="M241.7,201l-.9-125.8-.2-28.7-26.7,10.7-91.7,36.6L33.1,58.1h0l-26.9-10.8.2,28.9.9,126.4.2,28.9,26.9,10.8,51.8,20.7,36,14.4,36-14.4,56.9-22.7,26.7-10.7v-28.7ZM122.2,248.7l-88-35.2-.4-55.6-.2-28.7-.3-42.1,52.8,21.1h0l36,14.4,36-14.4,55.8-22.3.3,44.6.5,81-92.6,37.1Z"/>
  <polygon class="st1" points="158.3 176.4 128 194.6 101.3 210.6 101.3 142.3 158.3 176.4"/>
  <g>
    <path class="st0" d="M335,114.9c4.2,0,7.2-1.1,9.3-3.2,1.9-2.2,2.9-4.9,2.9-8.4s-1-6.2-2.9-8.4c-1.9-2.2-5.1-3.2-9.4-3.2s-7.3,1.1-9.3,3.2c-2,2.2-3,4.9-3,8.4s1,6.2,3,8.4c1.9,2.2,5.1,3.2,9.4,3.2Z"/>
    <polygon class="st0" points="316.5 120.5 316.5 137.5 325.4 137.5 325.4 191.3 348.8 191.3 348.8 137.5 348.8 120.5 325.4 120.5 316.5 120.5"/>
    <polygon class="st0" points="439 172.4 437.1 172.4 406 97.8 367 97.8 367 191.3 389 191.3 389 116.8 390.8 116.8 422 191.3 461.3 191.3 461.3 97.8 439 97.8 439 172.4"/>
    <path class="st0" d="M524.8,122.5c-5.1-2.2-11.3-3.2-18.5-3.2s-5.4,0-8.4.1-5.9.2-8.8.4c-2.8.2-5.3.3-7.3.5v19.5c2.9-.2,6.1-.3,9.6-.5,3.6-.2,6.9-.3,10-.4,3.1-.1,5.6-.1,7.2-.1,3.4,0,5.9.8,7.3,2.4,1.5,1.5,2.2,3.9,2.3,7h-11.2c-6.5,0-12,.8-17,2.3-4.9,1.5-8.8,4-11.6,7.2-2.8,3.3-4.2,7.5-4.2,12.9s1.1,8.7,3.2,12.2c2.2,3.3,5.2,5.9,9,7.7s8.3,2.7,13.2,2.7,9.1-.9,12.5-2.7c3.3-1.8,6-4.4,8-7.7.8-1.4,1.4-2.9,1.9-4.5v13.2h18.4v-42.9c0-6.6-1.3-12-4.1-16.2-2.5-4.3-6.3-7.5-11.5-9.7ZM516.4,172.6c-1.1,1.8-2.4,3-3.9,3.8-1.6.8-3.4,1.1-5.5,1.1-3.1,0-5.6-.8-7.3-2.4-1.7-1.6-2.6-3.7-2.6-6.2s.9-4.7,2.6-6.3,4.1-2.4,7.3-2.4h11.2v4.9c-.1,3.2-.8,5.7-1.8,7.5Z"/>
    <path class="st0" d="M598.9,162c0,3.3-1,6-2.9,8-1.9,1.9-4.5,2.9-7.6,2.9s-5.7-1-7.5-2.9-2.8-4.5-2.8-7.6v-41.6h-23.3v41c0,10.9,2.2,18.9,6.6,24.1,4.4,5.3,10.7,7.9,18.6,7.9h1.1c5.3,0,9.8-1.2,13.3-3.4,3.6-2.3,6.3-5.8,8.2-10.5.5-1.5,1.1-3.2,1.5-4.9v16.7h18.4v-70.7h-23.3v41.3h-.1Z"/>
    <polygon class="st0" points="711.4 120.5 686.9 120.5 662.7 153.6 662.7 97.8 639.5 97.8 639.5 191.3 662.7 191.3 662.7 158.3 668.8 158.3 689.6 191.3 715.7 191.3 689 150.8 711.4 120.5"/>
    <path class="st0" d="M768.2,122.5c-5.1-2.2-11.3-3.2-18.5-3.2s-5.4,0-8.4.1-5.9.2-8.8.4c-2.8.2-5.3.3-7.3.5v19.5c2.9-.2,6.1-.3,9.6-.5,3.6-.2,6.9-.3,10-.4,3.1-.1,5.6-.1,7.2-.1,3.4,0,5.9.8,7.3,2.4,1.5,1.5,2.2,3.9,2.3,7h-11.2c-6.5,0-12,.8-17,2.3-4.9,1.5-8.8,4-11.6,7.2-2.8,3.3-4.2,7.5-4.2,12.9s1.1,8.7,3.2,12.2c2.2,3.3,5.2,5.9,9,7.7,3.9,1.8,8.3,2.7,13.2,2.7s9.1-.9,12.5-2.7,6-4.4,8-7.7c.8-1.4,1.4-2.9,1.9-4.5v13.2h18.4v-42.9c0-6.6-1.3-12-4.1-16.2-2.6-4.3-6.5-7.5-11.5-9.7ZM759.8,172.6c-1.1,1.8-2.4,3-3.9,3.8-1.6.8-3.4,1.1-5.5,1.1-3.1,0-5.6-.8-7.3-2.4s-2.6-3.7-2.6-6.2.9-4.7,2.6-6.3c1.7-1.6,4.1-2.4,7.3-2.4h11.2v4.9c-.2,3.2-.9,5.7-1.8,7.5Z"/>
    <rect class="st0" x="796.1" y="165.9" width="25.1" height="25.4"/>
    <path class="st0" d="M904,128.6c-2.8-3.2-6.2-5.7-10.1-7.4-4-1.7-8.3-2.6-13.2-2.6s-10.7,1.3-15,3.8-7.7,6.2-10.3,11.1-1.5,3.3-2.2,5.2v-18h-18.4v96.4h23.3v-33.8c2.2,3,4.9,5.5,8.2,7.1,4.2,2.2,9,3.2,14.5,3.2s9.7-.9,13.7-2.7c4-1.8,7.3-4.3,10-7.6s4.7-7.1,6.1-11.5c1.4-4.4,2-9.3,2-14.4v-3.1c0-5.2-.8-10-2.3-14.3-1.5-4.3-3.7-8.1-6.5-11.3ZM887.5,165.4c-1.3,2.8-3.1,5.1-5.5,6.6-2.4,1.6-5.1,2.4-8.2,2.4s-5.1-.6-7.5-1.8c-2.5-1.2-4.5-3-6.1-5.4s-2.5-5.2-2.5-8.5v-4.3c0-3.6.8-6.5,2.3-8.9,1.5-2.5,3.6-4.3,5.9-5.6s5.1-1.9,7.9-1.9,5.9.8,8.2,2.3c2.3,1.5,4.1,3.6,5.5,6.2,1.3,2.7,1.9,5.9,1.9,9.6.1,3.4-.5,6.7-1.8,9.5Z"/>
    <polygon class="st0" points="926.5 97.8 918.7 97.8 918.7 114.7 926.5 114.7 926.5 191.3 949.9 191.3 949.9 114.7 949.9 97.8 926.5 97.8"/>
  </g>
</svg>