<svg xmlns="http://www.w3.org/2000/svg" xmlns:xlink="http://www.w3.org/1999/xlink" width="220" height="161.532" viewBox="0 0 220 161.532">
  <defs>
    <linearGradient id="linear-gradient" x1="0.5" x2="0.5" y2="1" gradientUnits="objectBoundingBox">
      <stop offset="0" stop-color="#fd5429"/>
      <stop offset="1" stop-color="#f99140"/>
    </linearGradient>
    <clipPath id="clip-path">
      <rect id="Rectangle_603" data-name="Rectangle 603" width="220" height="161.532" transform="translate(0 0)" fill="url(#linear-gradient)"/>
    </clipPath>
  </defs>
  <g id="Group_735" data-name="Group 735" transform="translate(0 -0.412)">
    <g id="Group_733" data-name="Group 733" transform="translate(0 0.412)" clip-path="url(#clip-path)">
      <path id="Path_4296" data-name="Path 4296" d="M48.6,162.012H35.373L33.506,159.6l14.08-55.123,1.192-1.331,17.976-6.716H14.465A14.483,14.483,0,0,1,0,81.97V4.822A4.808,4.808,0,0,1,4.783,0H95.471a4.828,4.828,0,0,1,4.822,4.822V54.66c0,61.063-49.9,106.411-50.4,106.862Zm-10.747-3.857h9.991c5.319-5.015,48.588-47.547,48.588-103.495V4.822a.965.965,0,0,0-.964-.964H4.783a.926.926,0,0,0-.926.964V81.97A10.617,10.617,0,0,0,14.465,92.578H77.419l.679,3.738-27.025,10.1Z" transform="translate(0 -0.231)" fill="url(#linear-gradient)"/>
      <path id="Path_4297" data-name="Path 4297" d="M79.6,162.012H66.367L64.5,159.6l14.08-55.123,1.2-1.331,17.972-6.716H45.463A14.483,14.483,0,0,1,31,81.97V4.822A4.808,4.808,0,0,1,35.781,0h90.688a4.828,4.828,0,0,1,4.822,4.822V54.66c0,61.063-49.9,106.411-50.405,106.862Zm-10.747-3.857h9.991c5.319-5.015,48.592-47.547,48.592-103.495V4.822a.967.967,0,0,0-.964-.964H35.781a.923.923,0,0,0-.926.964V81.97A10.614,10.614,0,0,0,45.463,92.578h62.953l.675,3.738-27.021,10.1Z" transform="translate(88.575 -0.231)" fill="url(#linear-gradient)"/>
    </g>
  </g>
</svg>
