<?xml version="1.0" encoding="utf-8"?>
<!-- Generator: Adobe Illustrator 27.1.1, SVG Export Plug-In . SVG Version: 6.00 Build 0)  -->
<svg version="1.1" id="Warstwa_1" xmlns="http://www.w3.org/2000/svg" xmlns:xlink="http://www.w3.org/1999/xlink" x="0px" y="0px"
	 viewBox="0 0 68 68" style="enable-background:new 0 0 68 68;" xml:space="preserve">
<style type="text/css">
	.st0{fill:#FFFFFF;}
	.st1{fill:#231F20;}
	.st2{fill:#FF6841;}
</style>
<g>
	<circle class="st0" cx="34" cy="34" r="34"/>
</g>
<g>
	<path class="st1" d="M31.7,42.6c0,0-1.7-0.7-3.2-1.2c0.7-1,1.1-2.2,1.1-3.5c0-3.4-2.7-6.1-6.1-6.1c-3.4,0-6.1,2.7-6.1,6.1
		c0,1.3,0.4,2.5,1.1,3.5c-1.4,0.6-3.2,1.2-3.2,1.2c-1.5,0.6-3.9,1.5-3.9,4.7v6.9c0,0.4,0.3,0.7,0.7,0.7h22.6c0.4,0,0.7-0.3,0.7-0.7
		v-6.9C35.6,44,33.3,43.1,31.7,42.6z M23.6,33.3c2.5,0,4.6,2.1,4.6,4.6s-2.1,4.6-4.6,4.6c-2.5,0-4.6-2.1-4.6-4.6S21,33.3,23.6,33.3z
		 M34.1,53.4h-3.2v-3.7c0-0.4-0.3-0.7-0.7-0.7s-0.7,0.3-0.7,0.7v3.7H17.7v-3.7c0-0.4-0.3-0.7-0.7-0.7c-0.4,0-0.7,0.3-0.7,0.7v3.7H13
		v-6.2c0-2.1,1.4-2.7,2.9-3.3c0,0,2.1-0.8,3.7-1.4c1.1,0.9,2.4,1.4,3.9,1.4c1.5,0,2.9-0.5,3.9-1.4c1.7,0.6,3.7,1.4,3.7,1.4
		c1.5,0.6,2.9,1.1,2.9,3.3V53.4z"/>
	<path class="st1" d="M41.7,42.6c0,0-1.9-0.8-3.2-1.2c0.7-1,1.1-2.2,1.1-3.5c0-3.4-2.7-6.1-6.1-6.1c-0.7,0-1.4,0.1-2.1,0.4
		c-0.4,0.1-0.6,0.6-0.4,1c0.1,0.4,0.6,0.6,1,0.4c0.5-0.2,1-0.3,1.6-0.3c2.5,0,4.6,2.1,4.6,4.6c0,1.2-0.5,2.4-1.4,3.3
		c-0.2,0.2-0.3,0.4-0.2,0.7c0.1,0.2,0.2,0.5,0.5,0.5c1.6,0.6,4.1,1.6,4.1,1.6c1.5,0.6,2.9,1.1,2.9,3.3v6.2h-5
		c-0.4,0-0.7,0.3-0.7,0.7c0,0.4,0.3,0.7,0.7,0.7h5.7c0.4,0,0.7-0.3,0.7-0.7v-6.9C45.6,44,43.2,43.1,41.7,42.6z"/>
	<path class="st1" d="M51.8,42.6c0,0-1.9-0.8-3.2-1.2c0.7-1,1.1-2.2,1.1-3.5c0-3.4-2.7-6.1-6.1-6.1c-0.7,0-1.4,0.1-2.1,0.4
		c-0.4,0.1-0.6,0.6-0.4,1c0.1,0.4,0.6,0.6,1,0.4c0.5-0.2,1-0.3,1.6-0.3c2.5,0,4.6,2.1,4.6,4.6c0,1.2-0.5,2.4-1.4,3.3
		c-0.2,0.2-0.3,0.4-0.2,0.7c0.1,0.2,0.2,0.5,0.5,0.5c1.6,0.6,4.1,1.6,4.1,1.6c1.5,0.6,2.9,1.1,2.9,3.3v6.2h-5
		c-0.4,0-0.7,0.3-0.7,0.7c0,0.4,0.3,0.7,0.7,0.7h5.7c0.4,0,0.7-0.3,0.7-0.7v-6.9C55.6,44,53.3,43.1,51.8,42.6z"/>
	<path class="st2" d="M54.9,14.6H37.4c-0.3-1.8-2-3.2-3.9-3.2s-3.5,1.4-3.9,3.2H12.3c-0.4,0-0.7,0.3-0.7,0.7v4.3
		c0,0.4,0.3,0.7,0.7,0.7h1.4v19.2c0,0.4,0.3,0.7,0.7,0.7c0.4,0,0.7-0.3,0.7-0.7V20.4H52v19.2c0,0.4,0.3,0.7,0.7,0.7
		c0.4,0,0.7-0.3,0.7-0.7V20.4h1.4c0.4,0,0.7-0.3,0.7-0.7v-4.3C55.6,14.9,55.3,14.6,54.9,14.6z M54.1,18.9H13v-2.8h17.4
		c0.4,0,0.7-0.3,0.7-0.7c0-1.4,1.1-2.4,2.4-2.4c1.4,0,2.4,1.1,2.4,2.4c0,0.4,0.3,0.7,0.7,0.7h17.4V18.9z"/>
	<path class="st1" d="M33.6,14.2c-0.6,0-1.2,0.5-1.2,1.2c0,0.6,0.5,1.2,1.2,1.2c0.6,0,1.2-0.5,1.2-1.2
		C34.7,14.7,34.2,14.2,33.6,14.2z"/>
	<path class="st1" d="M35.1,23.9c-0.3-0.1-0.6-0.1-0.8,0.1l-4.2,3.6l-5-2.3c-0.3-0.1-0.6-0.1-0.8,0.1l-4.5,3.9
		c-0.3,0.3-0.3,0.7-0.1,1.1c0.2,0.2,0.4,0.3,0.7,0.3c0.1,0,0.3-0.1,0.4-0.2l4.2-3.6l5,2.3c0.3,0.1,0.6,0.1,0.8-0.1l4.2-3.6l5,2.3
		c0.3,0.1,0.6,0.1,0.8-0.1l3.6-3c0.2,0.1,0.5,0.1,0.7,0.1c0.8-0.1,1.4-0.9,1.3-1.7c-0.1-0.8-0.9-1.4-1.7-1.3
		c-0.8,0.1-1.4,0.9-1.3,1.7c0,0,0,0,0,0.1l-3.2,2.7L35.1,23.9z"/>
</g>
</svg>
