<?xml version="1.0" encoding="utf-8"?>
<!-- Generator: Adobe Illustrator 27.1.1, SVG Export Plug-In . SVG Version: 6.00 Build 0)  -->
<svg version="1.1" id="Warstwa_1" xmlns="http://www.w3.org/2000/svg" xmlns:xlink="http://www.w3.org/1999/xlink" x="0px" y="0px"
	 viewBox="0 0 68 68" style="enable-background:new 0 0 68 68;" xml:space="preserve">
<style type="text/css">
	.st0{fill:#FFFFFF;}
	.st1{fill:#231F20;}
	.st2{fill:#FF6841;}
</style>
<g>
	<circle class="st0" cx="-582" cy="34" r="34"/>
</g>
<g>
	<g>
		<path class="st1" d="M-563.8,57.1h-37c-0.4,0-0.8-0.4-0.8-0.8V12.6c0-0.4,0.4-0.8,0.8-0.8h37c0.4,0,0.8,0.4,0.8,0.8v43.8
			C-563,56.8-563.4,57.1-563.8,57.1z M-600,55.6h35.5V13.4H-600V55.6z"/>
	</g>
	<g>
		<path class="st2" d="M-572.2,53.1h-20.1c-0.4,0-0.7-0.3-0.8-0.7c-0.2-2-1.7-3.5-3.7-3.7c-0.4,0-0.7-0.4-0.7-0.8V21
			c0-0.4,0.3-0.7,0.7-0.8c2-0.2,3.5-1.7,3.7-3.7c0-0.4,0.4-0.7,0.8-0.7h20.1c0.4,0,0.7,0.3,0.8,0.7c0.2,2,1.7,3.5,3.7,3.7
			c0.4,0,0.7,0.4,0.7,0.8v26.9c0,0.4-0.3,0.7-0.7,0.8c-2,0.2-3.5,1.7-3.7,3.7C-571.5,52.8-571.8,53.1-572.2,53.1z M-591.7,51.5h18.8
			c0.5-2.1,2.2-3.8,4.3-4.3V21.7c-2.1-0.5-3.8-2.2-4.3-4.3h-18.8c-0.5,2.1-2.2,3.8-4.3,4.3v25.5C-593.9,47.7-592.2,49.4-591.7,51.5z
			"/>
	</g>
	<g>
		<path class="st1" d="M-580,25.1h-4.6c-0.4,0-0.8-0.4-0.8-0.8c0-0.4,0.4-0.8,0.8-0.8h4.6c0.4,0,0.8,0.4,0.8,0.8
			C-579.2,24.8-579.6,25.1-580,25.1z"/>
	</g>
	<g>
		<path class="st1" d="M-573.8,42.4h-4.8c-0.4,0-0.8-0.4-0.8-0.8s0.4-0.8,0.8-0.8h4.8c0.4,0,0.8,0.4,0.8,0.8S-573.4,42.4-573.8,42.4
			z"/>
	</g>
	<g>
		<path class="st1" d="M-573.8,29.6h-17c-0.4,0-0.8-0.4-0.8-0.8c0-0.4,0.4-0.8,0.8-0.8h17c0.4,0,0.8,0.4,0.8,0.8
			C-573,29.2-573.4,29.6-573.8,29.6z"/>
	</g>
	<g>
		<path class="st1" d="M-573.8,34.1h-17c-0.4,0-0.8-0.4-0.8-0.8c0-0.4,0.4-0.8,0.8-0.8h17c0.4,0,0.8,0.4,0.8,0.8
			C-573,33.7-573.4,34.1-573.8,34.1z"/>
	</g>
	<g>
		<path class="st2" d="M-586.8,46.3c-2.6,0-4.7-2.1-4.7-4.7c0-2.6,2.1-4.7,4.7-4.7c2.6,0,4.7,2.1,4.7,4.7
			C-582.1,44.2-584.2,46.3-586.8,46.3z M-586.8,38.4c-1.7,0-3.2,1.4-3.2,3.2c0,1.7,1.4,3.2,3.2,3.2c1.7,0,3.2-1.4,3.2-3.2
			C-583.7,39.8-585.1,38.4-586.8,38.4z"/>
	</g>
</g>
<g>
	<circle class="st0" cx="34" cy="34" r="34"/>
</g>
<g>
	<g>
		<path class="st1" d="M52.6,56.5h-37c-0.4,0-0.8-0.4-0.8-0.8V11.9c0-0.4,0.4-0.8,0.8-0.8h37c0.4,0,0.8,0.4,0.8,0.8v43.8
			C53.4,56.1,53.1,56.5,52.6,56.5z M16.4,54.9h35.5V12.7H16.4V54.9z"/>
	</g>
	<g>
		<path class="st2" d="M44.2,52.4H24.1c-0.4,0-0.7-0.3-0.8-0.7c-0.2-2-1.7-3.5-3.7-3.7c-0.4,0-0.7-0.4-0.7-0.8V20.4
			c0-0.4,0.3-0.7,0.7-0.8c2-0.2,3.5-1.7,3.7-3.7c0-0.4,0.4-0.7,0.8-0.7h20.1c0.4,0,0.7,0.3,0.8,0.7c0.2,2,1.7,3.5,3.7,3.7
			c0.4,0,0.7,0.4,0.7,0.8v26.9c0,0.4-0.3,0.7-0.7,0.8c-2,0.2-3.5,1.7-3.7,3.7C44.9,52.1,44.6,52.4,44.2,52.4z M24.7,50.8h18.8
			c0.5-2.1,2.2-3.8,4.3-4.3V21c-2.1-0.5-3.8-2.2-4.3-4.3H24.7c-0.5,2.1-2.2,3.8-4.3,4.3v25.5C22.6,47,24.3,48.7,24.7,50.8z"/>
	</g>
	<g>
		<path class="st1" d="M36.4,24.4h-4.6c-0.4,0-0.8-0.4-0.8-0.8c0-0.4,0.4-0.8,0.8-0.8h4.6c0.4,0,0.8,0.4,0.8,0.8
			C37.2,24.1,36.8,24.4,36.4,24.4z"/>
	</g>
	<g>
		<path class="st1" d="M42.6,41.7h-4.8c-0.4,0-0.8-0.4-0.8-0.8s0.4-0.8,0.8-0.8h4.8c0.4,0,0.8,0.4,0.8,0.8S43,41.7,42.6,41.7z"/>
	</g>
	<g>
		<path class="st1" d="M42.6,28.9h-17c-0.4,0-0.8-0.4-0.8-0.8c0-0.4,0.4-0.8,0.8-0.8h17c0.4,0,0.8,0.4,0.8,0.8
			C43.4,28.6,43,28.9,42.6,28.9z"/>
	</g>
	<g>
		<path class="st1" d="M42.6,33.4h-17c-0.4,0-0.8-0.4-0.8-0.8c0-0.4,0.4-0.8,0.8-0.8h17c0.4,0,0.8,0.4,0.8,0.8
			C43.4,33.1,43,33.4,42.6,33.4z"/>
	</g>
	<g>
		<path class="st2" d="M29.6,45.7c-2.6,0-4.7-2.1-4.7-4.7s2.1-4.7,4.7-4.7c2.6,0,4.7,2.1,4.7,4.7S32.2,45.7,29.6,45.7z M29.6,37.7
			c-1.7,0-3.2,1.4-3.2,3.2c0,1.7,1.4,3.2,3.2,3.2c1.7,0,3.2-1.4,3.2-3.2C32.8,39.2,31.3,37.7,29.6,37.7z"/>
	</g>
</g>
</svg>
