<?xml version="1.0" encoding="utf-8"?>
<!-- Generator: Adobe Illustrator 27.1.1, SVG Export Plug-In . SVG Version: 6.00 Build 0)  -->
<svg version="1.1" id="Warstwa_1" xmlns="http://www.w3.org/2000/svg" xmlns:xlink="http://www.w3.org/1999/xlink" x="0px" y="0px"
	 viewBox="0 0 68 68" style="enable-background:new 0 0 68 68;" xml:space="preserve">
<style type="text/css">
	.st0{fill:#FFFFFF;}
	.st1{fill:#231F20;}
	.st2{fill:#FF6841;}
</style>
<g>
	<circle class="st0" cx="-582" cy="34" r="34"/>
</g>
<g>
	<g>
		<path class="st1" d="M-563.8,57.1h-37c-0.4,0-0.8-0.4-0.8-0.8V12.6c0-0.4,0.4-0.8,0.8-0.8h37c0.4,0,0.8,0.4,0.8,0.8v43.8
			C-563,56.8-563.4,57.1-563.8,57.1z M-600,55.6h35.5V13.4H-600V55.6z"/>
	</g>
	<g>
		<path class="st2" d="M-572.2,53.1h-20.1c-0.4,0-0.7-0.3-0.8-0.7c-0.2-2-1.7-3.5-3.7-3.7c-0.4,0-0.7-0.4-0.7-0.8V21
			c0-0.4,0.3-0.7,0.7-0.8c2-0.2,3.5-1.7,3.7-3.7c0-0.4,0.4-0.7,0.8-0.7h20.1c0.4,0,0.7,0.3,0.8,0.7c0.2,2,1.7,3.5,3.7,3.7
			c0.4,0,0.7,0.4,0.7,0.8v26.9c0,0.4-0.3,0.7-0.7,0.8c-2,0.2-3.5,1.7-3.7,3.7C-571.5,52.8-571.8,53.1-572.2,53.1z M-591.7,51.5h18.8
			c0.5-2.1,2.2-3.8,4.3-4.3V21.7c-2.1-0.5-3.8-2.2-4.3-4.3h-18.8c-0.5,2.1-2.2,3.8-4.3,4.3v25.5C-593.9,47.7-592.2,49.4-591.7,51.5z
			"/>
	</g>
	<g>
		<path class="st1" d="M-580,25.1h-4.6c-0.4,0-0.8-0.4-0.8-0.8c0-0.4,0.4-0.8,0.8-0.8h4.6c0.4,0,0.8,0.4,0.8,0.8
			C-579.2,24.8-579.6,25.1-580,25.1z"/>
	</g>
	<g>
		<path class="st1" d="M-573.8,42.4h-4.8c-0.4,0-0.8-0.4-0.8-0.8s0.4-0.8,0.8-0.8h4.8c0.4,0,0.8,0.4,0.8,0.8S-573.4,42.4-573.8,42.4
			z"/>
	</g>
	<g>
		<path class="st1" d="M-573.8,29.6h-17c-0.4,0-0.8-0.4-0.8-0.8c0-0.4,0.4-0.8,0.8-0.8h17c0.4,0,0.8,0.4,0.8,0.8
			C-573,29.2-573.4,29.6-573.8,29.6z"/>
	</g>
	<g>
		<path class="st1" d="M-573.8,34.1h-17c-0.4,0-0.8-0.4-0.8-0.8c0-0.4,0.4-0.8,0.8-0.8h17c0.4,0,0.8,0.4,0.8,0.8
			C-573,33.7-573.4,34.1-573.8,34.1z"/>
	</g>
	<g>
		<path class="st2" d="M-586.8,46.3c-2.6,0-4.7-2.1-4.7-4.7c0-2.6,2.1-4.7,4.7-4.7c2.6,0,4.7,2.1,4.7,4.7
			C-582.1,44.2-584.2,46.3-586.8,46.3z M-586.8,38.4c-1.7,0-3.2,1.4-3.2,3.2c0,1.7,1.4,3.2,3.2,3.2c1.7,0,3.2-1.4,3.2-3.2
			C-583.7,39.8-585.1,38.4-586.8,38.4z"/>
	</g>
</g>
<g>
	<g>
		<circle class="st0" cx="34" cy="34" r="34"/>
	</g>
	<g>
		<path class="st1" d="M30.8,24.7c-0.1-0.1-2.4-1.3-3.8-2.1c1-1.1,1.7-2.6,1.7-4.3c0-3.5-2.9-6.4-6.4-6.4c-3.5,0-6.4,2.9-6.4,6.4
			c0,1.7,0.6,3.2,1.7,4.3c-1.5,0.8-3.7,2.1-3.8,2.1c-2.2,1.2-3.5,2.1-3.2,6.1c0.3,3.9,0.8,9.4,0.8,9.4c0,0.2,0.2,0.4,0.4,0.6
			l3.7,2.4v11c0,1.3,1.1,2.4,2.4,2.4h9c1.3,0,2.4-1.1,2.4-2.4v-11l3.7-2.4c0.2-0.1,0.3-0.3,0.4-0.6c0-0.1,0.5-5.5,0.8-9.4
			C34.3,26.8,33,26,30.8,24.7z M22.2,13.4c2.7,0,4.9,2.2,4.9,4.9c0,2.7-2.2,4.9-4.9,4.9c-2.7,0-4.9-2.2-4.9-4.9
			C17.4,15.6,19.5,13.4,22.2,13.4z M22.2,24.7c0.3,0,0.5,0,0.8-0.1l1.7,8.2l-2.5,2.5l-2.5-2.5l1.7-8.2
			C21.7,24.6,21.9,24.7,22.2,24.7z M32.4,30.7c-0.3,3.3-0.7,7.7-0.8,9l-3.7,2.4c-0.2,0.1-0.4,0.4-0.4,0.7v11.4
			c0,0.4-0.4,0.8-0.8,0.8H23v-9c0-0.4-0.3-0.8-0.8-0.8c-0.4,0-0.8,0.3-0.8,0.8v9h-3.7c-0.4,0-0.8-0.4-0.8-0.8V42.7
			c0-0.3-0.1-0.5-0.4-0.7l-3.7-2.4c-0.1-1.3-0.6-5.7-0.8-9c-0.2-3.1,0.5-3.6,2.4-4.6c0.1-0.1,2.7-1.5,4.4-2.4
			c0.4,0.2,0.8,0.4,1.2,0.6l-1.8,8.6c-0.1,0.3,0,0.5,0.2,0.7l3.3,3.3c0.1,0.1,0.3,0.2,0.5,0.2h0c0.2,0,0.4-0.1,0.5-0.2l3.3-3.3
			c0.2-0.2,0.3-0.4,0.2-0.7l-1.8-8.6c0.4-0.2,0.8-0.4,1.2-0.6c1.7,0.9,4.2,2.4,4.4,2.4C31.9,27.1,32.7,27.5,32.4,30.7z"/>
		<path class="st1" d="M51.6,45.3c0,0-1.5-0.6-2.7-1.1c0.6-0.9,0.9-1.9,0.9-3.1c0-3.1-2.5-5.6-5.6-5.6c-3.1,0-5.6,2.5-5.6,5.6
			c0,1.1,0.3,2.2,0.9,3.1c-1.3,0.5-2.7,1.1-2.7,1.1c-1.4,0.5-3.5,1.4-3.5,4.3v6.2c0,0.4,0.3,0.8,0.8,0.8h20.2c0.4,0,0.8-0.3,0.8-0.8
			v-6.2C55.1,46.7,53,45.8,51.6,45.3z M44.2,37.2c2.2,0,4,1.8,4,4c0,2.2-1.8,4-4,4c-2.2,0-4-1.8-4-4C40.2,39,42,37.2,44.2,37.2z
			 M53.5,55H34.8v-5.4c0-1.7,1-2.2,2.5-2.8c0,0,1.8-0.7,3.3-1.3c1,0.8,2.2,1.3,3.5,1.3c1.3,0,2.6-0.5,3.5-1.3
			c1.5,0.6,3.3,1.3,3.3,1.3c1.5,0.6,2.5,1.1,2.5,2.8V55z"/>
		<path class="st2" d="M37.6,28.5l3.4-4l2.7,2.1c0.3,0.3,0.8,0.2,1.1-0.1l3.9-4.6c0.3-0.3,0.2-0.8-0.1-1.1c-0.3-0.3-0.8-0.2-1.1,0.1
			l-3.4,4l-2.7-2.1c-0.3-0.3-0.8-0.2-1.1,0.1l-3.9,4.6c-0.3,0.3-0.2,0.8,0.1,1.1c0.1,0.1,0.3,0.2,0.5,0.2
			C37.2,28.8,37.4,28.7,37.6,28.5z"/>
		<path class="st2" d="M53,11.9H30c-0.4,0-0.8,0.3-0.8,0.8c0,0.4,0.3,0.8,0.8,0.8h23c0.8,0,1.4,0.6,1.4,1.4c0,0.8-0.6,1.4-1.4,1.4
			H31.7c-0.4,0-0.8,0.3-0.8,0.8s0.3,0.8,0.8,0.8h20.5v13.6H37.7c-0.4,0-0.8,0.3-0.8,0.8c0,0.4,0.3,0.8,0.8,0.8H53
			c0.4,0,0.8-0.3,0.8-0.8V17.6c1.2-0.3,2.2-1.5,2.2-2.8C55.9,13.2,54.6,11.9,53,11.9z"/>
	</g>
</g>
</svg>
