<?xml version="1.0" encoding="utf-8"?>
<!-- Generator: Adobe Illustrator 27.1.1, SVG Export Plug-In . SVG Version: 6.00 Build 0)  -->
<svg version="1.1" id="Warstwa_1" xmlns="http://www.w3.org/2000/svg" xmlns:xlink="http://www.w3.org/1999/xlink" x="0px" y="0px"
	 viewBox="0 0 68 68" style="enable-background:new 0 0 68 68;" xml:space="preserve">
<style type="text/css">
	.st0{fill:#FFFFFF;}
	.st1{fill:#231F20;}
	.st2{fill:#FF6841;}
</style>
<g>
	<circle class="st0" cx="-582" cy="34" r="34"/>
</g>
<g>
	<g>
		<path class="st1" d="M-563.8,57.1h-37c-0.4,0-0.8-0.4-0.8-0.8V12.6c0-0.4,0.4-0.8,0.8-0.8h37c0.4,0,0.8,0.4,0.8,0.8v43.8
			C-563,56.8-563.4,57.1-563.8,57.1z M-600,55.6h35.5V13.4H-600V55.6z"/>
	</g>
	<g>
		<path class="st2" d="M-572.2,53.1h-20.1c-0.4,0-0.7-0.3-0.8-0.7c-0.2-2-1.7-3.5-3.7-3.7c-0.4,0-0.7-0.4-0.7-0.8V21
			c0-0.4,0.3-0.7,0.7-0.8c2-0.2,3.5-1.7,3.7-3.7c0-0.4,0.4-0.7,0.8-0.7h20.1c0.4,0,0.7,0.3,0.8,0.7c0.2,2,1.7,3.5,3.7,3.7
			c0.4,0,0.7,0.4,0.7,0.8v26.9c0,0.4-0.3,0.7-0.7,0.8c-2,0.2-3.5,1.7-3.7,3.7C-571.5,52.8-571.8,53.1-572.2,53.1z M-591.7,51.5h18.8
			c0.5-2.1,2.2-3.8,4.3-4.3V21.7c-2.1-0.5-3.8-2.2-4.3-4.3h-18.8c-0.5,2.1-2.2,3.8-4.3,4.3v25.5C-593.9,47.7-592.2,49.4-591.7,51.5z
			"/>
	</g>
	<g>
		<path class="st1" d="M-580,25.1h-4.6c-0.4,0-0.8-0.4-0.8-0.8c0-0.4,0.4-0.8,0.8-0.8h4.6c0.4,0,0.8,0.4,0.8,0.8
			C-579.2,24.8-579.6,25.1-580,25.1z"/>
	</g>
	<g>
		<path class="st1" d="M-573.8,42.4h-4.8c-0.4,0-0.8-0.4-0.8-0.8s0.4-0.8,0.8-0.8h4.8c0.4,0,0.8,0.4,0.8,0.8S-573.4,42.4-573.8,42.4
			z"/>
	</g>
	<g>
		<path class="st1" d="M-573.8,29.6h-17c-0.4,0-0.8-0.4-0.8-0.8c0-0.4,0.4-0.8,0.8-0.8h17c0.4,0,0.8,0.4,0.8,0.8
			C-573,29.2-573.4,29.6-573.8,29.6z"/>
	</g>
	<g>
		<path class="st1" d="M-573.8,34.1h-17c-0.4,0-0.8-0.4-0.8-0.8c0-0.4,0.4-0.8,0.8-0.8h17c0.4,0,0.8,0.4,0.8,0.8
			C-573,33.7-573.4,34.1-573.8,34.1z"/>
	</g>
	<g>
		<path class="st2" d="M-586.8,46.3c-2.6,0-4.7-2.1-4.7-4.7c0-2.6,2.1-4.7,4.7-4.7c2.6,0,4.7,2.1,4.7,4.7
			C-582.1,44.2-584.2,46.3-586.8,46.3z M-586.8,38.4c-1.7,0-3.2,1.4-3.2,3.2c0,1.7,1.4,3.2,3.2,3.2c1.7,0,3.2-1.4,3.2-3.2
			C-583.7,39.8-585.1,38.4-586.8,38.4z"/>
	</g>
</g>
<g>
	<g>
		<circle class="st0" cx="34" cy="34" r="34"/>
	</g>
	<g>
		<path class="st1" d="M25.3,41.9c-0.7,0-1.3,0.6-1.3,1.3c0,0.7,0.6,1.3,1.3,1.3c0.7,0,1.3-0.6,1.3-1.3C26.6,42.4,26,41.9,25.3,41.9
			z"/>
		<path class="st1" d="M25.3,48.7c-0.7,0-1.3,0.6-1.3,1.3s0.6,1.3,1.3,1.3c0.7,0,1.3-0.6,1.3-1.3S26,48.7,25.3,48.7z"/>
		<path class="st1" d="M25.3,55.6c-0.7,0-1.3,0.6-1.3,1.3c0,0.7,0.6,1.3,1.3,1.3c0.7,0,1.3-0.6,1.3-1.3C26.6,56.2,26,55.6,25.3,55.6
			z"/>
		<path class="st1" d="M53.5,19.8c0,0-1.5-0.6-2.6-1c0.6-0.9,0.9-1.9,0.9-3c0-3-2.5-5.5-5.5-5.5c-3,0-5.5,2.5-5.5,5.5
			c0,1.1,0.3,2.1,0.9,3c-1.2,0.5-2.6,1-2.6,1c-1.3,0.5-3.5,1.4-3.5,4.3v6.1c0,0.4,0.4,0.8,0.8,0.8h20c0.4,0,0.8-0.4,0.8-0.8V24
			C57,21.1,54.8,20.3,53.5,19.8z M46.2,11.8c2.2,0,3.9,1.8,3.9,3.9s-1.8,3.9-3.9,3.9c-2.2,0-3.9-1.8-3.9-3.9S44.1,11.8,46.2,11.8z
			 M55.4,29.3H37V24c0-1.7,1-2.2,2.5-2.7c0,0,1.7-0.7,3.2-1.2c1,0.8,2.2,1.3,3.5,1.3c1.3,0,2.5-0.5,3.5-1.3c1.5,0.6,3.2,1.2,3.2,1.2
			c1.5,0.6,2.5,1.1,2.5,2.7V29.3z"/>
		<path class="st2" d="M20,32.1c6,0,10.9-4.9,10.9-10.9c0-6-4.9-10.9-10.9-10.9c-6,0-10.9,4.9-10.9,10.9C9.1,27.2,14,32.1,20,32.1z
			 M20,11.8c5.1,0,9.3,4.2,9.3,9.3c0,5.1-4.2,9.3-9.3,9.3s-9.3-4.2-9.3-9.3C10.7,16,14.9,11.8,20,11.8z"/>
		<path class="st2" d="M20,22h4c0.4,0,0.8-0.4,0.8-0.8c0-0.4-0.4-0.8-0.8-0.8h-3.2v-5c0-0.4-0.4-0.8-0.8-0.8s-0.8,0.4-0.8,0.8v5.8
			C19.2,21.6,19.6,22,20,22z"/>
		<path class="st1" d="M56.2,42.3h-24c-0.4,0-0.8,0.4-0.8,0.8c0,0.4,0.4,0.8,0.8,0.8h24c0.4,0,0.8-0.4,0.8-0.8
			C57,42.7,56.6,42.3,56.2,42.3z"/>
		<path class="st1" d="M56.2,35.8H9.9c-0.4,0-0.8,0.4-0.8,0.8c0,0.4,0.4,0.8,0.8,0.8h46.3c0.4,0,0.8-0.4,0.8-0.8
			C57,36.1,56.6,35.8,56.2,35.8z"/>
		<path class="st1" d="M56.2,49.2h-24c-0.4,0-0.8,0.4-0.8,0.8c0,0.4,0.4,0.8,0.8,0.8h24c0.4,0,0.8-0.4,0.8-0.8
			C57,49.5,56.6,49.2,56.2,49.2z"/>
		<path class="st1" d="M56.2,56h-24c-0.4,0-0.8,0.4-0.8,0.8c0,0.4,0.4,0.8,0.8,0.8h24c0.4,0,0.8-0.4,0.8-0.8
			C57,56.4,56.6,56,56.2,56z"/>
		<path class="st2" d="M18.3,40.7l-1.9,2.2l-1.9-2.2c-0.3-0.3-0.8-0.4-1.1-0.1c-0.3,0.3-0.4,0.8-0.1,1.1l2.5,2.8
			c0.2,0.2,0.4,0.3,0.6,0.3c0.2,0,0.5-0.1,0.6-0.3l2.5-2.8c0.3-0.3,0.3-0.8-0.1-1.1C19.1,40.3,18.6,40.4,18.3,40.7z"/>
		<path class="st2" d="M18.3,48l-1.9,2.2L14.5,48c-0.3-0.3-0.8-0.4-1.1-0.1c-0.3,0.3-0.4,0.8-0.1,1.1l2.5,2.8
			c0.2,0.2,0.4,0.3,0.6,0.3c0.2,0,0.5-0.1,0.6-0.3l2.5-2.8c0.3-0.3,0.3-0.8-0.1-1.1C19.1,47.7,18.6,47.7,18.3,48z"/>
	</g>
</g>
</svg>
