<?xml version="1.0" encoding="utf-8"?>
<!-- Generator: Adobe Illustrator 27.1.1, SVG Export Plug-In . SVG Version: 6.00 Build 0)  -->
<svg version="1.1" id="Warstwa_1" xmlns="http://www.w3.org/2000/svg" xmlns:xlink="http://www.w3.org/1999/xlink" x="0px" y="0px"
	 viewBox="0 0 68 68" style="enable-background:new 0 0 68 68;" xml:space="preserve">
<style type="text/css">
	.st0{fill:#FFFFFF;}
	.st1{fill:#231F20;}
	.st2{fill:#FF6841;}
</style>
<g>
	<circle class="st0" cx="-582" cy="34" r="34"/>
</g>
<g>
	<g>
		<path class="st1" d="M-563.8,57.1h-37c-0.4,0-0.8-0.4-0.8-0.8V12.6c0-0.4,0.4-0.8,0.8-0.8h37c0.4,0,0.8,0.4,0.8,0.8v43.8
			C-563,56.8-563.4,57.1-563.8,57.1z M-600,55.6h35.5V13.4H-600V55.6z"/>
	</g>
	<g>
		<path class="st2" d="M-572.2,53.1h-20.1c-0.4,0-0.7-0.3-0.8-0.7c-0.2-2-1.7-3.5-3.7-3.7c-0.4,0-0.7-0.4-0.7-0.8V21
			c0-0.4,0.3-0.7,0.7-0.8c2-0.2,3.5-1.7,3.7-3.7c0-0.4,0.4-0.7,0.8-0.7h20.1c0.4,0,0.7,0.3,0.8,0.7c0.2,2,1.7,3.5,3.7,3.7
			c0.4,0,0.7,0.4,0.7,0.8v26.9c0,0.4-0.3,0.7-0.7,0.8c-2,0.2-3.5,1.7-3.7,3.7C-571.5,52.8-571.8,53.1-572.2,53.1z M-591.7,51.5h18.8
			c0.5-2.1,2.2-3.8,4.3-4.3V21.7c-2.1-0.5-3.8-2.2-4.3-4.3h-18.8c-0.5,2.1-2.2,3.8-4.3,4.3v25.5C-593.9,47.7-592.2,49.4-591.7,51.5z
			"/>
	</g>
	<g>
		<path class="st1" d="M-580,25.1h-4.6c-0.4,0-0.8-0.4-0.8-0.8c0-0.4,0.4-0.8,0.8-0.8h4.6c0.4,0,0.8,0.4,0.8,0.8
			C-579.2,24.8-579.6,25.1-580,25.1z"/>
	</g>
	<g>
		<path class="st1" d="M-573.8,42.4h-4.8c-0.4,0-0.8-0.4-0.8-0.8s0.4-0.8,0.8-0.8h4.8c0.4,0,0.8,0.4,0.8,0.8S-573.4,42.4-573.8,42.4
			z"/>
	</g>
	<g>
		<path class="st1" d="M-573.8,29.6h-17c-0.4,0-0.8-0.4-0.8-0.8c0-0.4,0.4-0.8,0.8-0.8h17c0.4,0,0.8,0.4,0.8,0.8
			C-573,29.2-573.4,29.6-573.8,29.6z"/>
	</g>
	<g>
		<path class="st1" d="M-573.8,34.1h-17c-0.4,0-0.8-0.4-0.8-0.8c0-0.4,0.4-0.8,0.8-0.8h17c0.4,0,0.8,0.4,0.8,0.8
			C-573,33.7-573.4,34.1-573.8,34.1z"/>
	</g>
	<g>
		<path class="st2" d="M-586.8,46.3c-2.6,0-4.7-2.1-4.7-4.7c0-2.6,2.1-4.7,4.7-4.7c2.6,0,4.7,2.1,4.7,4.7
			C-582.1,44.2-584.2,46.3-586.8,46.3z M-586.8,38.4c-1.7,0-3.2,1.4-3.2,3.2c0,1.7,1.4,3.2,3.2,3.2c1.7,0,3.2-1.4,3.2-3.2
			C-583.7,39.8-585.1,38.4-586.8,38.4z"/>
	</g>
</g>
<g>
	<g>
		<circle class="st0" cx="34" cy="34" r="34"/>
	</g>
	<g>
		<path class="st1" d="M56.9,47.4c0,0-7.7-15.3-7.7-15.3c-0.1-0.3-0.4-0.4-0.7-0.4c-3,0-4.4-0.7-5.7-1.3c-1.1-0.6-2.3-1.1-4.3-1.1
			c-1.8,0-3.2,0.6-4.5,2c-1.3-1.4-2.7-2-4.5-2c-2,0-3.2,0.6-4.3,1.1c-1.3,0.6-2.7,1.3-5.7,1.3c-0.3,0-0.5,0.2-0.7,0.4
			c0,0-7.7,15.3-7.7,15.3c-0.1,0.2-0.1,0.4,0,0.6l2.3,4.5c0.1,0.2,0.4,0.4,0.7,0.4h16c0.9,1.2,2.3,2,3.9,2c1.6,0,3-0.7,3.9-2h16
			c0.3,0,0.5-0.2,0.7-0.4l2.3-4.5C57,47.9,57,47.6,56.9,47.4z M19.9,33.2c3.1-0.1,4.6-0.8,5.9-1.4c1.1-0.5,2-1,3.7-1
			c1.5,0,2.7,0.6,3.8,1.9l0,5.9c0,0.4,0.3,0.7,0.7,0.7c0.4,0,0.7-0.3,0.7-0.7l0-5.9c1.1-1.4,2.3-1.9,3.8-1.9c1.7,0,2.6,0.5,3.7,1
			c1.3,0.6,2.8,1.4,5.9,1.4L55,47c-3.5-0.2-5.6-1-7.7-1.8c-2-0.8-3.9-1.5-6.5-1.5c-2.6,0-5,1-6.8,2.9c-1.8-1.8-4.2-2.9-6.8-2.9
			c-2.7,0-4.5,0.7-6.5,1.5C18.6,46,16.4,46.8,13,47L19.9,33.2z M53.5,51.5h-16c-0.3,0-0.5,0.1-0.6,0.4c-0.6,1-1.7,1.6-2.9,1.6
			c-1.2,0-2.2-0.6-2.9-1.6c-0.1-0.2-0.4-0.4-0.6-0.4h-16l-1.6-3.1c3.8-0.2,6.1-1.1,8.3-1.9c1.9-0.7,3.6-1.4,6-1.4
			c2.4,0,4.7,1.1,6.2,3c0.1,0.2,0.4,0.3,0.6,0.3c0.2,0,0.4-0.1,0.6-0.3c1.5-1.9,3.8-3,6.2-3c2.4,0,4.1,0.6,6,1.4
			c2.1,0.8,4.5,1.7,8.3,1.9L53.5,51.5z"/>
		<path class="st2" d="M26.8,22.4c0.6,0,1.2-0.5,1.2-1.2c0-0.6-0.5-1.2-1.2-1.2s-1.2,0.5-1.2,1.2C25.6,21.9,26.1,22.4,26.8,22.4z"/>
		<path class="st2" d="M48.3,13.9c0.6,0,1.2-0.5,1.2-1.2c0-0.6-0.5-1.2-1.2-1.2c-0.6,0-1.2,0.5-1.2,1.2
			C47.1,13.4,47.7,13.9,48.3,13.9z"/>
		<path class="st2" d="M53.5,27.2c0,0.6,0.5,1.2,1.2,1.2c0.6,0,1.2-0.5,1.2-1.2S55.3,26,54.7,26C54.1,26,53.5,26.5,53.5,27.2z"/>
		<path class="st2" d="M14,20.4c5.6,0.7,6.8,6.2,6.8,6.5c0.1,0.4,0.4,0.6,0.7,0.6c0,0,0.1,0,0.1,0c0.4-0.1,0.7-0.5,0.6-0.9
			c0-0.1-1.4-6.8-8.1-7.7c-0.4-0.1-0.8,0.2-0.8,0.6C13.3,20,13.6,20.3,14,20.4z"/>
		<path class="st2" d="M45.9,27.4c0,0,0.1,0,0.1,0c0.3,0,0.7-0.2,0.7-0.6c0-0.2,1.2-5.8,6.8-6.5c0.4-0.1,0.7-0.4,0.6-0.8
			c-0.1-0.4-0.4-0.7-0.8-0.6c-6.7,0.8-8.1,7.6-8.1,7.7C45.2,27,45.5,27.4,45.9,27.4z"/>
		<path class="st2" d="M34,23.9c0.4,0,0.7-0.3,0.7-0.7l0-13.4C34.7,9.3,34.4,9,34,9c-0.4,0-0.7,0.3-0.7,0.7l0,13.4
			C33.3,23.6,33.6,23.9,34,23.9z"/>
		<path class="st2" d="M19.1,14.2h1.1v1.1c0,0.4,0.3,0.7,0.7,0.7c0.4,0,0.7-0.3,0.7-0.7v-1.1h1.1c0.4,0,0.7-0.3,0.7-0.7
			c0-0.4-0.3-0.7-0.7-0.7h-1.1v-1.1c0-0.4-0.3-0.7-0.7-0.7c-0.4,0-0.7,0.3-0.7,0.7v1.1h-1.1c-0.4,0-0.7,0.3-0.7,0.7
			C18.3,13.9,18.6,14.2,19.1,14.2z"/>
		<path class="st2" d="M11.7,28.4h1.1v1.1c0,0.4,0.3,0.7,0.7,0.7c0.4,0,0.7-0.3,0.7-0.7v-1.1h1.1c0.4,0,0.7-0.3,0.7-0.7
			s-0.3-0.7-0.7-0.7h-1.1v-1.1c0-0.4-0.3-0.7-0.7-0.7c-0.4,0-0.7,0.3-0.7,0.7v1.1h-1.1c-0.4,0-0.7,0.3-0.7,0.7S11.3,28.4,11.7,28.4z
			"/>
		<path class="st2" d="M39.5,21.1h1.1v1.1c0,0.4,0.3,0.7,0.7,0.7c0.4,0,0.7-0.3,0.7-0.7v-1.1h1.1c0.4,0,0.7-0.3,0.7-0.7
			c0-0.4-0.3-0.7-0.7-0.7h-1.1v-1.1c0-0.4-0.3-0.7-0.7-0.7c-0.4,0-0.7,0.3-0.7,0.7v1.1h-1.1c-0.4,0-0.7,0.3-0.7,0.7
			C38.7,20.7,39.1,21.1,39.5,21.1z"/>
	</g>
</g>
</svg>
