<?xml version="1.0" encoding="utf-8"?>
<!-- Generator: Adobe Illustrator 27.1.1, SVG Export Plug-In . SVG Version: 6.00 Build 0)  -->
<svg version="1.1" id="Warstwa_1" xmlns="http://www.w3.org/2000/svg" xmlns:xlink="http://www.w3.org/1999/xlink" x="0px" y="0px"
	 viewBox="0 0 68 68" style="enable-background:new 0 0 68 68;" xml:space="preserve">
<style type="text/css">
	.st0{fill:#FFFFFF;}
	.st1{fill:#231F20;}
	.st2{fill:#FF6841;}
</style>
<g>
	<circle class="st0" cx="-582" cy="34" r="34"/>
</g>
<g>
	<g>
		<path class="st1" d="M-563.8,57.1h-37c-0.4,0-0.8-0.4-0.8-0.8V12.6c0-0.4,0.4-0.8,0.8-0.8h37c0.4,0,0.8,0.4,0.8,0.8v43.8
			C-563,56.8-563.4,57.1-563.8,57.1z M-600,55.6h35.5V13.4H-600V55.6z"/>
	</g>
	<g>
		<path class="st2" d="M-572.2,53.1h-20.1c-0.4,0-0.7-0.3-0.8-0.7c-0.2-2-1.7-3.5-3.7-3.7c-0.4,0-0.7-0.4-0.7-0.8V21
			c0-0.4,0.3-0.7,0.7-0.8c2-0.2,3.5-1.7,3.7-3.7c0-0.4,0.4-0.7,0.8-0.7h20.1c0.4,0,0.7,0.3,0.8,0.7c0.2,2,1.7,3.5,3.7,3.7
			c0.4,0,0.7,0.4,0.7,0.8v26.9c0,0.4-0.3,0.7-0.7,0.8c-2,0.2-3.5,1.7-3.7,3.7C-571.5,52.8-571.8,53.1-572.2,53.1z M-591.7,51.5h18.8
			c0.5-2.1,2.2-3.8,4.3-4.3V21.7c-2.1-0.5-3.8-2.2-4.3-4.3h-18.8c-0.5,2.1-2.2,3.8-4.3,4.3v25.5C-593.9,47.7-592.2,49.4-591.7,51.5z
			"/>
	</g>
	<g>
		<path class="st1" d="M-580,25.1h-4.6c-0.4,0-0.8-0.4-0.8-0.8c0-0.4,0.4-0.8,0.8-0.8h4.6c0.4,0,0.8,0.4,0.8,0.8
			C-579.2,24.8-579.6,25.1-580,25.1z"/>
	</g>
	<g>
		<path class="st1" d="M-573.8,42.4h-4.8c-0.4,0-0.8-0.4-0.8-0.8s0.4-0.8,0.8-0.8h4.8c0.4,0,0.8,0.4,0.8,0.8S-573.4,42.4-573.8,42.4
			z"/>
	</g>
	<g>
		<path class="st1" d="M-573.8,29.6h-17c-0.4,0-0.8-0.4-0.8-0.8c0-0.4,0.4-0.8,0.8-0.8h17c0.4,0,0.8,0.4,0.8,0.8
			C-573,29.2-573.4,29.6-573.8,29.6z"/>
	</g>
	<g>
		<path class="st1" d="M-573.8,34.1h-17c-0.4,0-0.8-0.4-0.8-0.8c0-0.4,0.4-0.8,0.8-0.8h17c0.4,0,0.8,0.4,0.8,0.8
			C-573,33.7-573.4,34.1-573.8,34.1z"/>
	</g>
	<g>
		<path class="st2" d="M-586.8,46.3c-2.6,0-4.7-2.1-4.7-4.7c0-2.6,2.1-4.7,4.7-4.7c2.6,0,4.7,2.1,4.7,4.7
			C-582.1,44.2-584.2,46.3-586.8,46.3z M-586.8,38.4c-1.7,0-3.2,1.4-3.2,3.2c0,1.7,1.4,3.2,3.2,3.2c1.7,0,3.2-1.4,3.2-3.2
			C-583.7,39.8-585.1,38.4-586.8,38.4z"/>
	</g>
</g>
<g>
	<g>
		<circle class="st0" cx="34" cy="34" r="34"/>
	</g>
	<g>
		<path class="st1" d="M25.7,28c-1.6,0.6-4.1,1.6-4.1,4.9c0,0.4,0.4,0.8,0.8,0.8s0.8-0.4,0.8-0.8c0-2.2,1.5-2.8,3-3.4
			c0,0,2.4-0.9,3.9-1.5c1.1,0.9,2.6,1.5,4.1,1.5c1.6,0,3-0.6,4.1-1.5c1.5,0.6,3.9,1.5,3.9,1.5c1.6,0.6,3,1.2,3,3.4v6.4H42v-3.8
			c0-0.4-0.4-0.8-0.8-0.8c-0.4,0-0.8,0.4-0.8,0.8v3.8h-4.2c-0.4,0-0.8,0.4-0.8,0.8c0,0.4,0.4,0.8,0.8,0.8h9.9c0.4,0,0.8-0.4,0.8-0.8
			v-7.2c0-3.3-2.4-4.3-4.1-4.9c0,0-2-0.8-3.3-1.3c0.7-1,1.1-2.3,1.1-3.6c0-3.5-2.9-6.4-6.4-6.4s-6.4,2.9-6.4,6.4
			c0,1.3,0.4,2.6,1.1,3.6C27.7,27.3,25.7,28,25.7,28z M34.3,18.3c2.6,0,4.8,2.1,4.8,4.8c0,2.6-2.1,4.8-4.8,4.8
			c-2.6,0-4.8-2.1-4.8-4.8C29.5,20.5,31.6,18.3,34.3,18.3z"/>
		<path class="st1" d="M53.2,11.7H15.4c-2.1,0-3.8,1.7-3.8,3.8v21.5c0,0.4,0.4,0.8,0.8,0.8c0.4,0,0.8-0.4,0.8-0.8V15.5
			c0-1.2,1-2.2,2.2-2.2h37.8c1.2,0,2.2,1,2.2,2.2v28.9H34.9c-0.4,0-0.8,0.4-0.8,0.8c0,0.4,0.4,0.8,0.8,0.8h20.5v7.3
			c0,1.2-1,2.2-2.2,2.2h-27c-0.4,0-0.8,0.4-0.8,0.8c0,0.4,0.4,0.8,0.8,0.8h27c2.1,0,3.8-1.7,3.8-3.8V15.5
			C57,13.4,55.3,11.7,53.2,11.7z"/>
		<path class="st1" d="M40,51.5c0.4,0,0.8-0.4,0.8-0.8c0-0.4-0.4-0.8-0.8-0.8h-5.2c-0.4,0-0.8,0.4-0.8,0.8c0,0.4,0.4,0.8,0.8,0.8H40
			z"/>
		<path class="st1" d="M51.2,50.7c0-0.7-0.6-1.3-1.3-1.3c-0.7,0-1.3,0.6-1.3,1.3c0,0.7,0.6,1.3,1.3,1.3C50.6,52,51.2,51.4,51.2,50.7
			z"/>
		<path class="st1" d="M46,50.7c0-0.7-0.6-1.3-1.3-1.3c-0.7,0-1.3,0.6-1.3,1.3c0,0.7,0.6,1.3,1.3,1.3C45.4,52,46,51.4,46,50.7z"/>
		<path class="st2" d="M29,51.9c0.3-0.1,0.5-0.3,0.6-0.6l4.3-16.4c0.1-0.3,0-0.6-0.2-0.8c-0.2-0.2-0.5-0.3-0.8-0.2l-16.4,4.3
			c-0.3,0.1-0.5,0.3-0.6,0.6c-0.1,0.3,0,0.6,0.2,0.8l3.1,3.1l-7.3,7.3c-0.2,0.2-0.2,0.4-0.2,0.6c0,0.2,0.1,0.4,0.2,0.6l4.7,4.7
			c0.2,0.2,0.4,0.2,0.6,0.2c0.2,0,0.4-0.1,0.6-0.2l7.3-7.3l3.3,3.3C28.4,51.9,28.7,51.9,29,51.9z M24.3,46.7L17,54l-3.5-3.5l7.3-7.3
			c0.2-0.2,0.2-0.4,0.2-0.6c0-0.2-0.1-0.4-0.2-0.6l-2.6-2.6l13.7-3.6l-3.6,13.7l-2.8-2.8C25.2,46.4,24.6,46.4,24.3,46.7z"/>
	</g>
</g>
</svg>
