<?xml version="1.0" encoding="utf-8"?>
<!-- Generator: Adobe Illustrator 27.1.1, SVG Export Plug-In . SVG Version: 6.00 Build 0)  -->
<svg version="1.1" id="Warstwa_1" xmlns="http://www.w3.org/2000/svg" xmlns:xlink="http://www.w3.org/1999/xlink" x="0px" y="0px"
	 viewBox="0 0 68 68" style="enable-background:new 0 0 68 68;" xml:space="preserve">
<style type="text/css">
	.st0{fill:#FFFFFF;}
	.st1{fill:#231F20;}
	.st2{fill:#FF6841;}
</style>
<g>
	<circle class="st0" cx="-582" cy="34" r="34"/>
</g>
<g>
	<g>
		<path class="st1" d="M-563.8,57.1h-37c-0.4,0-0.8-0.4-0.8-0.8V12.6c0-0.4,0.4-0.8,0.8-0.8h37c0.4,0,0.8,0.4,0.8,0.8v43.8
			C-563,56.8-563.4,57.1-563.8,57.1z M-600,55.6h35.5V13.4H-600V55.6z"/>
	</g>
	<g>
		<path class="st2" d="M-572.2,53.1h-20.1c-0.4,0-0.7-0.3-0.8-0.7c-0.2-2-1.7-3.5-3.7-3.7c-0.4,0-0.7-0.4-0.7-0.8V21
			c0-0.4,0.3-0.7,0.7-0.8c2-0.2,3.5-1.7,3.7-3.7c0-0.4,0.4-0.7,0.8-0.7h20.1c0.4,0,0.7,0.3,0.8,0.7c0.2,2,1.7,3.5,3.7,3.7
			c0.4,0,0.7,0.4,0.7,0.8v26.9c0,0.4-0.3,0.7-0.7,0.8c-2,0.2-3.5,1.7-3.7,3.7C-571.5,52.8-571.8,53.1-572.2,53.1z M-591.7,51.5h18.8
			c0.5-2.1,2.2-3.8,4.3-4.3V21.7c-2.1-0.5-3.8-2.2-4.3-4.3h-18.8c-0.5,2.1-2.2,3.8-4.3,4.3v25.5C-593.9,47.7-592.2,49.4-591.7,51.5z
			"/>
	</g>
	<g>
		<path class="st1" d="M-580,25.1h-4.6c-0.4,0-0.8-0.4-0.8-0.8c0-0.4,0.4-0.8,0.8-0.8h4.6c0.4,0,0.8,0.4,0.8,0.8
			C-579.2,24.8-579.6,25.1-580,25.1z"/>
	</g>
	<g>
		<path class="st1" d="M-573.8,42.4h-4.8c-0.4,0-0.8-0.4-0.8-0.8s0.4-0.8,0.8-0.8h4.8c0.4,0,0.8,0.4,0.8,0.8S-573.4,42.4-573.8,42.4
			z"/>
	</g>
	<g>
		<path class="st1" d="M-573.8,29.6h-17c-0.4,0-0.8-0.4-0.8-0.8c0-0.4,0.4-0.8,0.8-0.8h17c0.4,0,0.8,0.4,0.8,0.8
			C-573,29.2-573.4,29.6-573.8,29.6z"/>
	</g>
	<g>
		<path class="st1" d="M-573.8,34.1h-17c-0.4,0-0.8-0.4-0.8-0.8c0-0.4,0.4-0.8,0.8-0.8h17c0.4,0,0.8,0.4,0.8,0.8
			C-573,33.7-573.4,34.1-573.8,34.1z"/>
	</g>
	<g>
		<path class="st2" d="M-586.8,46.3c-2.6,0-4.7-2.1-4.7-4.7c0-2.6,2.1-4.7,4.7-4.7c2.6,0,4.7,2.1,4.7,4.7
			C-582.1,44.2-584.2,46.3-586.8,46.3z M-586.8,38.4c-1.7,0-3.2,1.4-3.2,3.2c0,1.7,1.4,3.2,3.2,3.2c1.7,0,3.2-1.4,3.2-3.2
			C-583.7,39.8-585.1,38.4-586.8,38.4z"/>
	</g>
</g>
<g>
	<g>
		<circle class="st0" cx="34" cy="34" r="34"/>
	</g>
	<g>
		<path class="st1" d="M31.5,24.7c-0.2-0.1-2.7-1.5-3.8-2.1c1-1.1,1.7-2.6,1.7-4.3c0-3.5-2.8-6.3-6.3-6.3c-3.5,0-6.3,2.8-6.3,6.3
			c0,1.6,0.6,3.1,1.7,4.3c-1.2,0.6-3.6,2-3.8,2.1c-2.2,1.2-3.4,2.1-3.1,6c0.3,3.9,0.8,9.3,0.8,9.3c0,0.2,0.1,0.4,0.3,0.6l3.6,2.3
			v10.9c0,1.3,1,2.3,2.3,2.3h8.9c1.3,0,2.3-1,2.3-2.3V42.9l3.6-2.3c0.2-0.1,0.3-0.3,0.3-0.6c0-0.1,0.5-5.4,0.8-9.3
			C35,26.8,33.7,25.9,31.5,24.7z M23.1,13.5c2.7,0,4.8,2.2,4.8,4.8c0,2.7-2.2,4.8-4.8,4.8c-2.7,0-4.8-2.2-4.8-4.8
			C18.3,15.6,20.4,13.5,23.1,13.5z M23.1,24.6c0.3,0,0.5,0,0.8-0.1l1.7,8.1l-2.5,2.5l-2.5-2.5l1.7-8.1
			C22.5,24.6,22.8,24.6,23.1,24.6z M33.2,30.6c-0.3,3.3-0.7,7.7-0.8,8.9l-3.7,2.4c-0.2,0.1-0.3,0.4-0.3,0.6v11.3
			c0,0.5-0.4,0.8-0.8,0.8h-3.7v-8.9c0-0.4-0.3-0.7-0.7-0.7c-0.4,0-0.7,0.3-0.7,0.7v8.9h-3.7c-0.5,0-0.8-0.4-0.8-0.8V42.5
			c0-0.3-0.1-0.5-0.3-0.6l-3.7-2.4c-0.1-1.3-0.5-5.6-0.8-8.9c-0.2-3.1,0.5-3.5,2.4-4.6c0.2-0.1,3-1.7,4.3-2.4
			c0.4,0.2,0.8,0.4,1.2,0.6l-1.8,8.5c-0.1,0.2,0,0.5,0.2,0.7l3.3,3.3c0.1,0.1,0.3,0.2,0.5,0.2h0c0.2,0,0.4-0.1,0.5-0.2l3.3-3.3
			c0.2-0.2,0.3-0.4,0.2-0.7l-1.8-8.5c0.4-0.2,0.8-0.4,1.2-0.6c1.3,0.7,4.1,2.3,4.3,2.4C32.7,27,33.4,27.4,33.2,30.6z"/>
		<path class="st2" d="M56.5,20c-1.5-3.6-4.4-6.5-7.9-7.9c-0.2-0.1-0.4-0.1-0.6,0c-0.2,0.1-0.3,0.2-0.4,0.4l-0.5,1.3
			c-1.3-0.4-2.6-0.6-3.9-0.6c-3.3,0-6.4,1.3-8.7,3.6c-1.3,1.3-2.2,2.8-2.9,4.5c-0.1,0.4,0.1,0.8,0.4,1c0.4,0.1,0.8-0.1,1-0.4
			c0.5-1.5,1.4-2.8,2.5-3.9c2-2,4.8-3.2,7.6-3.2c1.2,0,2.3,0.2,3.4,0.5l-4.1,10c-0.1,0.3,0,0.6,0.2,0.8c0.1,0.1,0.3,0.2,0.5,0.2
			c0.1,0,0.2,0,0.3-0.1l10-4.1c1.2,3.8,0.3,8-2.6,11c-3.4,3.4-8.8,4.2-13,1.8c-0.4-0.2-0.8-0.1-1,0.3c-0.2,0.4-0.1,0.8,0.3,1
			c1.9,1.1,4,1.6,6,1.6c3.2,0,6.4-1.2,8.7-3.6c3.4-3.4,4.4-8.3,3-12.6l1.3-0.5c0.2-0.1,0.3-0.2,0.4-0.4C56.6,20.4,56.6,20.2,56.5,20
			z M44.5,24.1l4.2-10.3c2.7,1.3,4.9,3.5,6.1,6.1L44.5,24.1z"/>
		<path class="st1" d="M51.5,44.5h-16c-0.4,0-0.7,0.3-0.7,0.7c0,0.4,0.3,0.7,0.7,0.7h16c0.4,0,0.7-0.3,0.7-0.7
			C52.2,44.9,51.9,44.5,51.5,44.5z"/>
		<path class="st1" d="M51.5,49.3h-16c-0.4,0-0.7,0.3-0.7,0.7c0,0.4,0.3,0.7,0.7,0.7h16c0.4,0,0.7-0.3,0.7-0.7
			C52.2,49.7,51.9,49.3,51.5,49.3z"/>
		<path class="st1" d="M51.5,54.1h-16c-0.4,0-0.7,0.3-0.7,0.7c0,0.4,0.3,0.7,0.7,0.7h16c0.4,0,0.7-0.3,0.7-0.7
			C52.2,54.5,51.9,54.1,51.5,54.1z"/>
	</g>
</g>
</svg>
