<?xml version="1.0" encoding="utf-8"?>
<!-- Generator: Adobe Illustrator 27.1.1, SVG Export Plug-In . SVG Version: 6.00 Build 0)  -->
<svg version="1.1" id="Warstwa_1" xmlns="http://www.w3.org/2000/svg" xmlns:xlink="http://www.w3.org/1999/xlink" x="0px" y="0px"
	 viewBox="0 0 68 68" style="enable-background:new 0 0 68 68;" xml:space="preserve">
<style type="text/css">
	.st0{fill:#FFFFFF;}
	.st1{fill:#231F20;}
	.st2{fill:#FF6841;}
	.st3{fill:none;stroke:#231F20;stroke-width:1.3;stroke-linecap:round;stroke-linejoin:round;stroke-miterlimit:10;}
</style>
<g>
	<circle class="st0" cx="-582" cy="34" r="34"/>
</g>
<g>
	<g>
		<path class="st1" d="M-563.8,57.1h-37c-0.4,0-0.8-0.4-0.8-0.8V12.6c0-0.4,0.4-0.8,0.8-0.8h37c0.4,0,0.8,0.4,0.8,0.8v43.8
			C-563,56.8-563.4,57.1-563.8,57.1z M-600,55.6h35.5V13.4H-600V55.6z"/>
	</g>
	<g>
		<path class="st2" d="M-572.2,53.1h-20.1c-0.4,0-0.7-0.3-0.8-0.7c-0.2-2-1.7-3.5-3.7-3.7c-0.4,0-0.7-0.4-0.7-0.8V21
			c0-0.4,0.3-0.7,0.7-0.8c2-0.2,3.5-1.7,3.7-3.7c0-0.4,0.4-0.7,0.8-0.7h20.1c0.4,0,0.7,0.3,0.8,0.7c0.2,2,1.7,3.5,3.7,3.7
			c0.4,0,0.7,0.4,0.7,0.8v26.9c0,0.4-0.3,0.7-0.7,0.8c-2,0.2-3.5,1.7-3.7,3.7C-571.5,52.8-571.8,53.1-572.2,53.1z M-591.7,51.5h18.8
			c0.5-2.1,2.2-3.8,4.3-4.3V21.7c-2.1-0.5-3.8-2.2-4.3-4.3h-18.8c-0.5,2.1-2.2,3.8-4.3,4.3v25.5C-593.9,47.7-592.2,49.4-591.7,51.5z
			"/>
	</g>
	<g>
		<path class="st1" d="M-580,25.1h-4.6c-0.4,0-0.8-0.4-0.8-0.8c0-0.4,0.4-0.8,0.8-0.8h4.6c0.4,0,0.8,0.4,0.8,0.8
			C-579.2,24.8-579.6,25.1-580,25.1z"/>
	</g>
	<g>
		<path class="st1" d="M-573.8,42.4h-4.8c-0.4,0-0.8-0.4-0.8-0.8s0.4-0.8,0.8-0.8h4.8c0.4,0,0.8,0.4,0.8,0.8S-573.4,42.4-573.8,42.4
			z"/>
	</g>
	<g>
		<path class="st1" d="M-573.8,29.6h-17c-0.4,0-0.8-0.4-0.8-0.8c0-0.4,0.4-0.8,0.8-0.8h17c0.4,0,0.8,0.4,0.8,0.8
			C-573,29.2-573.4,29.6-573.8,29.6z"/>
	</g>
	<g>
		<path class="st1" d="M-573.8,34.1h-17c-0.4,0-0.8-0.4-0.8-0.8c0-0.4,0.4-0.8,0.8-0.8h17c0.4,0,0.8,0.4,0.8,0.8
			C-573,33.7-573.4,34.1-573.8,34.1z"/>
	</g>
	<g>
		<path class="st2" d="M-586.8,46.3c-2.6,0-4.7-2.1-4.7-4.7c0-2.6,2.1-4.7,4.7-4.7c2.6,0,4.7,2.1,4.7,4.7
			C-582.1,44.2-584.2,46.3-586.8,46.3z M-586.8,38.4c-1.7,0-3.2,1.4-3.2,3.2c0,1.7,1.4,3.2,3.2,3.2c1.7,0,3.2-1.4,3.2-3.2
			C-583.7,39.8-585.1,38.4-586.8,38.4z"/>
	</g>
</g>
<g>
	<g>
		<circle class="st0" cx="34" cy="34" r="34"/>
	</g>
	<path class="st3" d="M50.8,17.4c-0.8-1.3-1.9-2.5-3.3-3.2C46.2,13.4,44.6,13,43,13c-5,0-9,4-9,9c0,1.7,0.5,3.2,1.2,4.6"/>
	<g>
		<path class="st1" d="M24.8,46.6H12.8v-9.1c0-0.4-0.3-0.7-0.7-0.7c-0.4,0-0.7,0.3-0.7,0.7v18c0,0.4,0.3,0.7,0.7,0.7
			c0.4,0,0.7-0.3,0.7-0.7v-7.5h11.2v7.5c0,0.4,0.3,0.7,0.7,0.7c0.4,0,0.7-0.3,0.7-0.7v-8.2C25.5,46.9,25.2,46.6,24.8,46.6z"/>
		<path class="st1" d="M51.9,33H34.1c-0.4,0-0.7,0.3-0.7,0.7v3.6c0,0.4,0.3,0.7,0.7,0.7h11.3v16.8h-4.3c-0.4,0-0.7,0.3-0.7,0.7
			c0,0.4,0.3,0.7,0.7,0.7h10.8c0.4,0,0.7-0.3,0.7-0.7V33.7C52.6,33.3,52.3,33,51.9,33z M34.8,34.4h16.4v2.2H34.8V34.4z M46.8,54.8
			V37.9h4.4v16.8H46.8z"/>
		<path class="st2" d="M39.3,30.8h9.7c0.3,0,0.6-0.2,0.7-0.5l3-8.9c0.1-0.4-0.1-0.8-0.4-0.9c-0.4-0.1-0.8,0.1-0.9,0.4l-2.8,8.5h-9.1
			c-0.4,0-0.7,0.3-0.7,0.7C38.6,30.5,38.9,30.8,39.3,30.8z"/>
		<path class="st1" d="M36.2,52.6l-2.5-11.3c-0.3-1.5-1.4-3-3.2-3h-6.9V31c0,0,1.6,1,2.2,1.4c0.5,0.3,0.9,0.5,1.5,0.5H31
			c1.3,0,2.3-1,2.3-2.3c0-1.3-1-2.3-2.3-2.3h-2.9l-4.2-3.7c1-1,1.5-2.4,1.5-3.9c0-3.2-2.6-5.8-5.8-5.8s-5.8,2.6-5.8,5.8
			c0,1.9,0.9,3.6,2.4,4.6c-0.8,0.8-1.3,2-1.3,3.2v11.2c0,2.6,2.1,4.7,4.7,4.7c0,0,0,0,0,0h9.1l2.1,9.1c0.3,1.3,1.4,2.2,2.6,2.2
			c0.2,0,0.3,0,0.5-0.1C35.5,55.4,36.5,54,36.2,52.6C36.2,52.6,36.2,52.6,36.2,52.6z M15.3,20.8c0-2.4,2-4.4,4.4-4.4s4.4,2,4.4,4.4
			c0,2.4-2,4.4-4.4,4.4S15.3,23.2,15.3,20.8z M33.8,54.4c-0.1,0-0.2,0-0.3,0c-0.6,0-1.1-0.4-1.3-1c0,0,0,0,0,0l-2.2-9.7
			c-0.1-0.3-0.4-0.5-0.7-0.5h-9.7c0,0,0,0,0,0c-1.8,0-3.3-1.5-3.3-3.3V28.6c0-1,0.4-1.9,1.1-2.5c0.7,0.3,1.4,0.4,2.1,0.4
			c1.2,0,2.2-0.3,3.1-0.9l4.6,4c0.1,0.1,0.3,0.2,0.5,0.2H31c0.5,0,0.9,0.4,0.9,0.9s-0.4,0.9-0.9,0.9h-3.8c-0.2,0-0.4-0.1-0.6-0.2
			c-0.2-0.1-3.4-2.2-3.4-2.2c-0.2-0.1-0.5-0.1-0.7,0c-0.2,0.1-0.4,0.4-0.4,0.6V39c0,0.4,0.3,0.7,0.7,0.7l7.6,0
			c1.5,0,1.8,1.8,1.8,1.9l2.5,11.3C35,53.5,34.5,54.2,33.8,54.4z"/>
	</g>
	<g>
		<g>
			<path class="st1" d="M40.4,24.1c-0.4,0-0.7-0.1-1-0.2c-0.3-0.1-0.5-0.3-0.6-0.6c-0.1-0.2-0.2-0.5-0.2-0.8h0.9
				c0,0.2,0.1,0.4,0.2,0.6c0.2,0.1,0.4,0.2,0.7,0.2c0.2,0,0.3,0,0.5-0.1c0.1-0.1,0.2-0.2,0.3-0.3s0.1-0.3,0.1-0.4
				c0-0.2-0.1-0.4-0.2-0.6s-0.4-0.2-0.7-0.2c-0.1,0-0.3,0-0.4,0.1s-0.2,0.1-0.3,0.1L39.3,21l1.7-1.1l-0.1-0.1h-2.2v-0.8H42v1
				l-1.7,1.1L39.8,21c0.1,0,0.2,0,0.3-0.1s0.2,0,0.3,0c0.4,0,0.7,0.1,1,0.2c0.3,0.1,0.5,0.3,0.6,0.5c0.1,0.2,0.2,0.5,0.2,0.8v0.1
				c0,0.3-0.1,0.6-0.2,0.8c-0.1,0.2-0.4,0.4-0.6,0.6C41.1,24,40.8,24.1,40.4,24.1z"/>
			<path class="st1" d="M45.2,24.1c-0.4,0-0.7-0.1-1-0.2c-0.3-0.1-0.5-0.3-0.7-0.5c-0.2-0.2-0.3-0.5-0.4-0.8
				C43.1,22.3,43,22,43,21.6v-0.4c0-0.5,0.1-0.9,0.2-1.3s0.4-0.7,0.7-0.9c0.3-0.2,0.7-0.3,1.2-0.3c0.5,0,0.9,0.1,1.2,0.3
				c0.3,0.2,0.6,0.5,0.7,0.9s0.2,0.8,0.2,1.3v0.4c0,0.3,0,0.6-0.1,0.9s-0.2,0.6-0.4,0.8c-0.2,0.2-0.4,0.4-0.7,0.5
				C45.9,24,45.6,24.1,45.2,24.1z M45.2,23.2c0.4,0,0.7-0.1,0.9-0.4c0.2-0.3,0.3-0.7,0.3-1.3c0-0.6-0.1-1.1-0.3-1.4
				c-0.2-0.3-0.5-0.4-0.9-0.4c-0.4,0-0.7,0.1-0.9,0.4S44,20.8,44,21.4c0,0.6,0.1,1,0.3,1.3S44.8,23.2,45.2,23.2z"/>
		</g>
	</g>
</g>
</svg>
