<svg xmlns="http://www.w3.org/2000/svg" xmlns:xlink="http://www.w3.org/1999/xlink" width="60" height="60" viewBox="0 0 60 60">
  <defs>
    <clipPath id="clip-path">
      <rect id="Rectangle_42" data-name="Rectangle 42" width="24" height="32" fill="none"/>
    </clipPath>
  </defs>
  <g id="Group_22" data-name="Group 22" transform="translate(-1293 -1295)">
    <rect id="Rectangle_24" data-name="Rectangle 24" width="60" height="60" rx="10" transform="translate(1293 1295)" fill="#fff"/>
    <g id="Group_15" data-name="Group 15" transform="translate(1311 1309)">
      <g id="Group_14" data-name="Group 14" clip-path="url(#clip-path)">
        <path id="Path_26" data-name="Path 26" d="M5,28H1a1,1,0,0,1-1-1V5A1,1,0,0,1,1,4H5A1,1,0,0,1,6,5V27a1,1,0,0,1-1,1M2,26H4V6H2Z" fill="#11cc06"/>
        <path id="Path_27" data-name="Path 27" d="M5,6H1A1,1,0,0,1,0,5V1A1,1,0,0,1,1,0H5A1,1,0,0,1,6,1V5A1,1,0,0,1,5,6M2,4H4V2H2Z" fill="#11cc06"/>
        <path id="Path_28" data-name="Path 28" d="M1,27l2,4,2-4Z" fill="#11cc06"/>
        <path id="Path_29" data-name="Path 29" d="M3,32a1,1,0,0,1-.895-.553l-2-4A1,1,0,0,1,1,26H5a1,1,0,0,1,.894,1.447l-2,4A1,1,0,0,1,3,32m-.382-4L3,28.764,3.382,28Z" fill="#11cc06"/>
        <path id="Path_30" data-name="Path 30" d="M21.1,32H13.894A2.9,2.9,0,0,1,11,29.1V2.895A2.9,2.9,0,0,1,13.894,0H21.1A2.9,2.9,0,0,1,24,2.895V29.1A2.9,2.9,0,0,1,21.1,32M13.894,2A.9.9,0,0,0,13,2.895V29.1a.9.9,0,0,0,.894.9H21.1a.9.9,0,0,0,.9-.9V2.895A.9.9,0,0,0,21.1,2Z" fill="#11cc06"/>
        <path id="Path_31" data-name="Path 31" d="M17.5,6H12a1,1,0,0,1,0-2h5.5a1,1,0,0,1,0,2" fill="#11cc06"/>
        <path id="Path_32" data-name="Path 32" d="M15.148,11.5H12a1,1,0,0,1,0-2h3.148a1,1,0,1,1,0,2" fill="#11cc06"/>
        <path id="Path_33" data-name="Path 33" d="M17.5,17H12a1,1,0,0,1,0-2h5.5a1,1,0,0,1,0,2" fill="#11cc06"/>
        <path id="Path_34" data-name="Path 34" d="M15.148,22.5H12a1,1,0,0,1,0-2h3.148a1,1,0,1,1,0,2" fill="#11cc06"/>
        <path id="Path_35" data-name="Path 35" d="M17.5,28H12a1,1,0,0,1,0-2h5.5a1,1,0,0,1,0,2" fill="#11cc06"/>
      </g>
    </g>
  </g>
</svg>
