<svg xmlns="http://www.w3.org/2000/svg" xmlns:xlink="http://www.w3.org/1999/xlink" width="60" height="60" viewBox="0 0 60 60">
  <defs>
    <clipPath id="clip-path">
      <rect id="Rectangle_44" data-name="Rectangle 44" width="32" height="28" fill="none"/>
    </clipPath>
  </defs>
  <g id="Group_20" data-name="Group 20" transform="translate(-302 -1295)">
    <rect id="Rectangle_22" data-name="Rectangle 22" width="60" height="60" rx="10" transform="translate(302 1295)" fill="#fff"/>
    <g id="Group_19" data-name="Group 19" transform="translate(317 1311)">
      <g id="Group_18" data-name="Group 18" clip-path="url(#clip-path)">
        <path id="Path_41" data-name="Path 41" d="M31,28H1a1,1,0,0,1-1-1V5A1,1,0,0,1,1,4H5A1,1,0,0,1,6,5V21.4a12.015,12.015,0,0,1,4.5-1.007A12.868,12.868,0,0,1,16,21.862a12.868,12.868,0,0,1,5.5-1.471A12.015,12.015,0,0,1,26,21.4V5a1,1,0,0,1,1-1h4a1,1,0,0,1,1,1V27a1,1,0,0,1-1,1M2,26H30V6H28V23a1,1,0,0,1-1.513.859A11.366,11.366,0,0,0,21.5,22.391a11.366,11.366,0,0,0-4.987,1.468,1.013,1.013,0,0,1-1.026,0A11.366,11.366,0,0,0,10.5,22.391a11.366,11.366,0,0,0-4.987,1.468A1,1,0,0,1,4,23V6H2Z" fill="#11cc06"/>
        <path id="Path_42" data-name="Path 42" d="M16,24a1,1,0,0,1-.513-.141A11.366,11.366,0,0,0,10.5,22.391a11.366,11.366,0,0,0-4.987,1.468A1,1,0,0,1,4,23V2.61a1,1,0,0,1,.486-.858A13.255,13.255,0,0,1,10.5,0a13.255,13.255,0,0,1,6.014,1.752A1,1,0,0,1,17,2.61V23a1,1,0,0,1-1,1m-5.5-3.609A12.015,12.015,0,0,1,15,21.4V3.209A10.829,10.829,0,0,0,10.5,2,10.829,10.829,0,0,0,6,3.209V21.4a12.015,12.015,0,0,1,4.5-1.007" fill="#11cc06"/>
        <path id="Path_43" data-name="Path 43" d="M27,24a1,1,0,0,1-.513-.141A11.366,11.366,0,0,0,21.5,22.391a11.366,11.366,0,0,0-4.987,1.468A1,1,0,0,1,15,23V2.61a1,1,0,0,1,.486-.858A13.255,13.255,0,0,1,21.5,0a13.255,13.255,0,0,1,6.014,1.752A1,1,0,0,1,28,2.61V23a1,1,0,0,1-1,1m-5.5-3.609A12.015,12.015,0,0,1,26,21.4V3.209A10.829,10.829,0,0,0,21.5,2,10.829,10.829,0,0,0,17,3.209V21.4a12.015,12.015,0,0,1,4.5-1.007" fill="#11cc06"/>
      </g>
    </g>
  </g>
</svg>
