<?xml version="1.0" encoding="UTF-8"?><svg id="a" xmlns="http://www.w3.org/2000/svg" viewBox="0 0 754.15 265.59"><defs><style>.b{fill:#11cc06;}.b,.c{stroke-width:0px;}.c{fill:#fff;}</style></defs><polygon class="c" points="34.35 117.86 34.35 20.21 0 20.21 0 0 90.93 0 90.93 20.21 56.58 20.21 56.58 117.86 34.35 117.86"/><path class="c" d="m112.14,120.22c-8.31,0-15.63-1.77-21.97-5.3-6.34-3.54-11.28-8.53-14.82-14.99-3.54-6.45-5.3-14.06-5.3-22.81v-2.02c0-8.75,1.74-16.36,5.22-22.82,3.48-6.45,8.36-11.45,14.65-14.98,6.29-3.54,13.58-5.3,21.89-5.3s15.32,1.83,21.38,5.47c6.06,3.65,10.78,8.7,14.14,15.15,3.37,6.46,5.05,13.95,5.05,22.48v7.24h-60.78c.22,5.73,2.36,10.38,6.4,13.97,4.04,3.59,8.98,5.39,14.82,5.39s10.33-1.29,13.13-3.87c2.81-2.58,4.94-5.44,6.4-8.59l17.34,9.09c-1.57,2.92-3.85,6.09-6.82,9.51-2.97,3.43-6.93,6.34-11.87,8.75-4.94,2.42-11.23,3.62-18.86,3.62m-20.37-53.71h39.06c-.45-4.83-2.38-8.7-5.81-11.62-3.42-2.92-7.89-4.38-13.38-4.38s-10.27,1.46-13.64,4.38c-3.37,2.92-5.45,6.79-6.23,11.62"/><path class="c" d="m200.37,120.22c-8.08,0-15.41-1.68-21.97-5.05-6.57-3.37-11.76-8.25-15.57-14.65-3.82-6.4-5.73-14.14-5.73-23.24v-2.36c0-9.09,1.91-16.84,5.73-23.24,3.81-6.4,9.01-11.28,15.57-14.65,6.57-3.37,13.89-5.05,21.97-5.05s14.82,1.41,20.54,4.21c5.72,2.81,10.35,6.65,13.89,11.53s5.86,10.41,6.99,16.59l-20.54,4.38c-.45-3.37-1.46-6.4-3.03-9.09-1.57-2.69-3.79-4.83-6.65-6.4-2.86-1.57-6.43-2.35-10.69-2.35s-8.11.92-11.53,2.78c-3.42,1.85-6.12,4.61-8.08,8.25s-2.94,8.11-2.94,13.38v1.69c0,5.28.98,9.74,2.94,13.39s4.66,6.4,8.08,8.25c3.43,1.85,7.27,2.78,11.53,2.78,6.4,0,11.25-1.66,14.56-4.97,3.31-3.31,5.41-7.66,6.32-13.05l20.54,4.88c-1.46,5.95-3.96,11.37-7.49,16.25-3.54,4.88-8.17,8.73-13.89,11.53-5.73,2.81-12.57,4.21-20.54,4.21"/><path class="c" d="m249.7,117.86V0h21.22v44.62h3.03c.9-1.79,2.3-3.59,4.21-5.39,1.91-1.79,4.46-3.28,7.66-4.46,3.2-1.18,7.27-1.77,12.21-1.77,6.51,0,12.21,1.49,17.09,4.46,4.88,2.97,8.67,7.07,11.37,12.29,2.69,5.22,4.04,11.31,4.04,18.27v49.84h-21.21v-48.15c0-6.29-1.54-11-4.63-14.14-3.09-3.14-7.49-4.72-13.22-4.72-6.51,0-11.56,2.16-15.15,6.48-3.59,4.32-5.39,10.36-5.39,18.1v42.43h-21.22Z"/><path class="c" d="m343.32,117.86V34.35h20.88v10.95h3.03c1.35-2.92,3.87-5.7,7.58-8.33,3.7-2.64,9.31-3.96,16.84-3.96,6.51,0,12.21,1.49,17.09,4.46,4.88,2.97,8.67,7.07,11.37,12.29,2.69,5.22,4.04,11.31,4.04,18.27v49.84h-21.21v-48.15c0-6.29-1.55-11-4.63-14.14-3.09-3.14-7.49-4.72-13.22-4.72-6.51,0-11.56,2.16-15.16,6.48-3.59,4.32-5.39,10.36-5.39,18.1v42.43h-21.21Z"/><rect class="c" x="436.94" y="34.35" width="21.21" height="83.52"/><path class="c" d="m510.85,120.22c-8.08,0-15.41-1.68-21.97-5.05-6.57-3.37-11.76-8.25-15.57-14.65-3.82-6.4-5.73-14.14-5.73-23.24v-2.36c0-9.09,1.91-16.84,5.73-23.24,3.81-6.4,9.01-11.28,15.57-14.65,6.57-3.37,13.89-5.05,21.97-5.05s14.82,1.41,20.54,4.21c5.72,2.81,10.35,6.65,13.89,11.53,3.54,4.88,5.86,10.41,6.99,16.59l-20.54,4.38c-.45-3.37-1.46-6.4-3.03-9.09-1.57-2.69-3.79-4.83-6.65-6.4-2.86-1.57-6.43-2.35-10.69-2.35s-8.11.92-11.53,2.78c-3.42,1.85-6.12,4.61-8.08,8.25-1.96,3.65-2.94,8.11-2.94,13.38v1.69c0,5.28.98,9.74,2.94,13.39s4.66,6.4,8.08,8.25c3.43,1.85,7.27,2.78,11.53,2.78,6.4,0,11.25-1.66,14.56-4.97,3.31-3.31,5.41-7.66,6.32-13.05l20.54,4.88c-1.46,5.95-3.96,11.37-7.49,16.25-3.54,4.88-8.17,8.73-13.89,11.53-5.73,2.81-12.57,4.21-20.54,4.21"/><polygon class="c" points="559.17 117.86 559.17 92.61 604.97 54.55 604.97 51.86 560.86 51.86 560.86 34.35 628.21 34.35 628.21 59.61 582.41 97.66 582.41 100.35 629.56 100.35 629.56 117.86 559.17 117.86"/><path class="c" d="m639.32,117.86V34.35h20.88v10.95h3.03c1.35-2.92,3.87-5.7,7.58-8.33,3.7-2.64,9.31-3.96,16.84-3.96,6.51,0,12.21,1.49,17.09,4.46,4.88,2.97,8.67,7.07,11.37,12.29,2.69,5.22,4.04,11.31,4.04,18.27v49.84h-21.21v-48.15c0-6.29-1.55-11-4.63-14.14-3.09-3.14-7.49-4.72-13.22-4.72-6.51,0-11.56,2.16-15.16,6.48-3.59,4.32-5.39,10.36-5.39,18.1v42.43h-21.21Z"/><rect class="c" x="732.94" y="34.35" width="21.22" height="83.52"/><rect class="b" x="436.94" width="21.22" height="20.18"/><rect class="b" x="732.94" width="21.22" height="20.18"/><path class="b" d="m436.96,265.59v-114.06h20.32v9.83h2.95c1.86-3.17,4.75-5.98,8.69-8.44,3.93-2.46,9.56-3.69,16.88-3.69,6.56,0,12.62,1.61,18.19,4.83,5.57,3.22,10.05,7.95,13.44,14.18,3.38,6.23,5.08,13.77,5.08,22.62v2.62c0,8.85-1.7,16.39-5.08,22.62-3.39,6.23-7.87,10.95-13.44,14.18-5.57,3.22-11.64,4.83-18.19,4.83-4.92,0-9.04-.57-12.37-1.72-3.33-1.15-6.01-2.62-8.03-4.42-2.02-1.8-3.63-3.63-4.83-5.49h-2.95v42.12h-20.65Zm42.61-48.51c6.45,0,11.77-2.05,15.98-6.15,4.21-4.1,6.31-10.08,6.31-17.95v-1.64c0-7.87-2.13-13.85-6.39-17.95-4.26-4.1-9.56-6.15-15.9-6.15s-11.64,2.05-15.9,6.15c-4.26,4.1-6.39,10.08-6.39,17.95v1.64c0,7.87,2.13,13.85,6.39,17.95,4.26,4.1,9.56,6.15,15.9,6.15Z"/><path class="b" d="m529.23,232.82v-81.29h20.32v9.18h2.95c1.2-3.28,3.2-5.68,5.98-7.21,2.79-1.53,6.04-2.29,9.75-2.29h9.83v18.35h-10.16c-5.24,0-9.56,1.39-12.95,4.18-3.39,2.79-5.08,7.08-5.08,12.87v46.21h-20.65Z"/><path class="b" d="m620.51,235.11c-8.09,0-15.35-1.64-21.8-4.92-6.45-3.28-11.53-8.03-15.24-14.26-3.71-6.23-5.57-13.71-5.57-22.45v-2.62c0-8.74,1.86-16.22,5.57-22.45,3.71-6.23,8.79-10.98,15.24-14.26,6.45-3.28,13.71-4.92,21.8-4.92s15.35,1.64,21.8,4.92c6.45,3.28,11.53,8.03,15.24,14.26,3.71,6.23,5.57,13.71,5.57,22.45v2.62c0,8.74-1.86,16.22-5.57,22.45-3.72,6.23-8.8,10.98-15.24,14.26-6.45,3.28-13.71,4.92-21.8,4.92Zm0-18.35c6.33,0,11.58-2.05,15.73-6.15,4.15-4.1,6.23-9.97,6.23-17.62v-1.64c0-7.65-2.05-13.52-6.15-17.62-4.1-4.1-9.37-6.15-15.81-6.15s-11.58,2.05-15.73,6.15c-4.15,4.1-6.23,9.97-6.23,17.62v1.64c0,7.65,2.07,13.52,6.23,17.62,4.15,4.1,9.4,6.15,15.73,6.15Z"/></svg>