<svg id="Group_3" data-name="Group 3" xmlns="http://www.w3.org/2000/svg" xmlns:xlink="http://www.w3.org/1999/xlink" width="217.413" height="76.567" viewBox="0 0 217.413 76.567">
  <defs>
    <clipPath id="clip-path">
      <rect id="Rectangle_7" data-name="Rectangle 7" width="217.413" height="76.567" fill="none"/>
    </clipPath>
  </defs>
  <path id="Path_1" data-name="Path 1" d="M0,0V5.826H9.9V33.979H16.31V5.826h9.9V0Z" transform="translate(0 -0.001)" fill="#0a1b35"/>
  <g id="Group_2" data-name="Group 2">
    <g id="Group_1" data-name="Group 1" clip-path="url(#clip-path)">
      <path id="Path_2" data-name="Path 2" d="M82.182,57.425A12.785,12.785,0,0,1,75.848,55.9a10.761,10.761,0,0,1-4.272-4.32A13.478,13.478,0,0,1,70.047,45v-.583a13.661,13.661,0,0,1,1.505-6.578,10.646,10.646,0,0,1,4.222-4.32,12.655,12.655,0,0,1,6.311-1.529,11.728,11.728,0,0,1,6.165,1.578,10.841,10.841,0,0,1,4.078,4.369,13.812,13.812,0,0,1,1.456,6.48V46.5H76.26A5.44,5.44,0,0,0,78.1,50.533a6.2,6.2,0,0,0,4.272,1.553,5.456,5.456,0,0,0,3.786-1.116,7.849,7.849,0,0,0,1.845-2.476l5,2.621a15.514,15.514,0,0,1-1.966,2.742,10.617,10.617,0,0,1-3.421,2.524,12.373,12.373,0,0,1-5.437,1.044M76.308,41.941H87.57A4.8,4.8,0,0,0,85.9,38.592a6.642,6.642,0,0,0-7.791,0,5.427,5.427,0,0,0-1.8,3.349" transform="translate(-49.853 -22.768)" fill="#0a1b35"/>
      <path id="Path_3" data-name="Path 3" d="M169.57,57.425a13.675,13.675,0,0,1-6.335-1.456,10.951,10.951,0,0,1-4.49-4.222,12.848,12.848,0,0,1-1.651-6.7v-.679a12.85,12.85,0,0,1,1.651-6.7,10.96,10.96,0,0,1,4.49-4.223,13.686,13.686,0,0,1,6.335-1.456,13.348,13.348,0,0,1,5.922,1.213,10.626,10.626,0,0,1,4,3.325,11.577,11.577,0,0,1,2.014,4.782l-5.922,1.262a6.965,6.965,0,0,0-.873-2.621,4.906,4.906,0,0,0-1.918-1.845,6.354,6.354,0,0,0-3.082-.679,6.875,6.875,0,0,0-3.325.8,5.7,5.7,0,0,0-2.33,2.38,8.045,8.045,0,0,0-.849,3.858v.486a8.047,8.047,0,0,0,.849,3.859,5.7,5.7,0,0,0,2.33,2.378,6.876,6.876,0,0,0,3.325.8,5.685,5.685,0,0,0,4.2-1.433,6.718,6.718,0,0,0,1.821-3.762l5.922,1.408a13.3,13.3,0,0,1-2.16,4.684,10.608,10.608,0,0,1-4,3.325,13.34,13.34,0,0,1-5.922,1.213" transform="translate(-111.807 -22.768)" fill="#0a1b35"/>
      <path id="Path_4" data-name="Path 4" d="M249.7,33.979V0h6.117V12.863h.873A5.686,5.686,0,0,1,257.9,11.31a6.431,6.431,0,0,1,2.209-1.286,10.328,10.328,0,0,1,3.519-.51,9.29,9.29,0,0,1,4.927,1.287,8.771,8.771,0,0,1,3.276,3.544A11.332,11.332,0,0,1,273,19.611V33.979h-6.116V20.1a5.6,5.6,0,0,0-1.335-4.078,5.1,5.1,0,0,0-3.81-1.36,5.368,5.368,0,0,0-4.369,1.869,7.941,7.941,0,0,0-1.553,5.219V33.979Z" transform="translate(-177.715 -0.001)" fill="#0a1b35"/>
      <path id="Path_5" data-name="Path 5" d="M343.32,57.464V33.388h6.018v3.156h.874a6.362,6.362,0,0,1,2.185-2.4A8.39,8.39,0,0,1,357.252,33a9.29,9.29,0,0,1,4.927,1.287,8.776,8.776,0,0,1,3.276,3.544,11.332,11.332,0,0,1,1.165,5.266V57.464H360.5V43.582a5.6,5.6,0,0,0-1.336-4.078,5.1,5.1,0,0,0-3.81-1.36,5.368,5.368,0,0,0-4.369,1.869,7.94,7.94,0,0,0-1.553,5.219V57.464Z" transform="translate(-244.345 -23.486)" fill="#0a1b35"/>
      <rect id="Rectangle_3" data-name="Rectangle 3" width="6.116" height="24.076" transform="translate(125.963 9.902)" fill="#0a1b35"/>
      <path id="Path_6" data-name="Path 6" d="M480.053,57.425a13.674,13.674,0,0,1-6.335-1.456,10.951,10.951,0,0,1-4.49-4.222,12.848,12.848,0,0,1-1.651-6.7v-.679a12.85,12.85,0,0,1,1.651-6.7,10.96,10.96,0,0,1,4.49-4.223,13.685,13.685,0,0,1,6.335-1.456,13.348,13.348,0,0,1,5.922,1.213,10.626,10.626,0,0,1,4,3.325,11.577,11.577,0,0,1,2.014,4.782l-5.922,1.262a6.964,6.964,0,0,0-.873-2.621,4.906,4.906,0,0,0-1.918-1.845,6.354,6.354,0,0,0-3.082-.679,6.875,6.875,0,0,0-3.325.8,5.7,5.7,0,0,0-2.33,2.38,8.045,8.045,0,0,0-.849,3.858v.486a8.047,8.047,0,0,0,.849,3.859,5.7,5.7,0,0,0,2.33,2.378,6.876,6.876,0,0,0,3.325.8,5.685,5.685,0,0,0,4.2-1.433,6.718,6.718,0,0,0,1.821-3.762l5.922,1.408a13.3,13.3,0,0,1-2.16,4.684,10.608,10.608,0,0,1-4,3.325,13.34,13.34,0,0,1-5.922,1.213" transform="translate(-332.781 -22.768)" fill="#0a1b35"/>
      <path id="Path_7" data-name="Path 7" d="M559.175,58.424V51.142l13.2-10.97V39.4H559.66V34.347h19.417v7.282l-13.2,10.97v.777h13.592v5.048Z" transform="translate(-397.972 -24.445)" fill="#0a1b35"/>
      <path id="Path_8" data-name="Path 8" d="M639.321,57.464V33.388h6.018v3.156h.874a6.361,6.361,0,0,1,2.185-2.4A8.39,8.39,0,0,1,653.253,33a9.29,9.29,0,0,1,4.927,1.287,8.775,8.775,0,0,1,3.276,3.544A11.332,11.332,0,0,1,662.62,43.1V57.464H656.5V43.582a5.6,5.6,0,0,0-1.336-4.078,5.1,5.1,0,0,0-3.81-1.36,5.368,5.368,0,0,0-4.369,1.869,7.94,7.94,0,0,0-1.553,5.219V57.464Z" transform="translate(-455.013 -23.486)" fill="#0a1b35"/>
      <rect id="Rectangle_4" data-name="Rectangle 4" width="6.117" height="24.076" transform="translate(211.297 9.902)" fill="#0a1b35"/>
      <rect id="Rectangle_5" data-name="Rectangle 5" width="6.117" height="5.819" transform="translate(125.963)" fill="#11cc06"/>
      <rect id="Rectangle_6" data-name="Rectangle 6" width="6.117" height="5.819" transform="translate(211.297)" fill="#11cc06"/>
      <path id="Path_9" data-name="Path 9" d="M436.965,182.779V149.9h5.858v2.835h.85a7.288,7.288,0,0,1,2.5-2.433,9.218,9.218,0,0,1,4.866-1.063,10.137,10.137,0,0,1,9.118,5.481,13.481,13.481,0,0,1,1.465,6.52v.756a13.483,13.483,0,0,1-1.465,6.52,10.138,10.138,0,0,1-9.118,5.48,11.072,11.072,0,0,1-3.567-.5,6.724,6.724,0,0,1-2.315-1.276,7.878,7.878,0,0,1-1.394-1.583h-.85v12.142Zm12.284-13.985a6.333,6.333,0,0,0,4.607-1.772,6.9,6.9,0,0,0,1.819-5.173v-.472a6.848,6.848,0,0,0-1.843-5.174,6.813,6.813,0,0,0-9.165,0,6.849,6.849,0,0,0-1.843,5.174v.472a6.849,6.849,0,0,0,1.843,5.173,6.352,6.352,0,0,0,4.583,1.772" transform="translate(-310.994 -106.212)" fill="#11cc06"/>
      <path id="Path_10" data-name="Path 10" d="M529.229,174.731V151.3h5.858v2.646h.85a3.737,3.737,0,0,1,1.724-2.079,5.751,5.751,0,0,1,2.811-.661h2.835v5.291h-2.929a5.682,5.682,0,0,0-3.733,1.2,4.525,4.525,0,0,0-1.464,3.709v13.323Z" transform="translate(-376.659 -107.613)" fill="#11cc06"/>
      <path id="Path_11" data-name="Path 11" d="M590.186,173.991a13.662,13.662,0,0,1-6.284-1.417,10.624,10.624,0,0,1-4.394-4.11,12.41,12.41,0,0,1-1.606-6.473v-.756a12.412,12.412,0,0,1,1.606-6.473,10.629,10.629,0,0,1,4.394-4.11,14.639,14.639,0,0,1,12.567,0,10.637,10.637,0,0,1,4.394,4.11,12.417,12.417,0,0,1,1.606,6.473v.756a12.415,12.415,0,0,1-1.606,6.473,10.632,10.632,0,0,1-4.394,4.11,13.665,13.665,0,0,1-6.284,1.417m0-5.291a6.192,6.192,0,0,0,4.535-1.772,6.819,6.819,0,0,0,1.8-5.079v-.472a6.875,6.875,0,0,0-1.772-5.079,6.722,6.722,0,0,0-9.095,0,6.819,6.819,0,0,0-1.8,5.079v.472a6.816,6.816,0,0,0,1.8,5.079,6.191,6.191,0,0,0,4.536,1.772" transform="translate(-411.3 -106.212)" fill="#11cc06"/>
    </g>
  </g>
</svg>
