<svg xmlns="http://www.w3.org/2000/svg" xmlns:xlink="http://www.w3.org/1999/xlink" width="213.629" height="75.234" viewBox="0 0 213.629 75.234">
  <defs>
    <clipPath id="clip-path">
      <rect id="Rectangle_16" data-name="Rectangle 16" width="213.629" height="75.234" fill="none"/>
    </clipPath>
  </defs>
  <g id="Group_5" data-name="Group 5" clip-path="url(#clip-path)">
    <path id="Path_13" data-name="Path 13" d="M81.971,56.983a12.563,12.563,0,0,1-6.224-1.5,10.574,10.574,0,0,1-4.2-4.245,13.243,13.243,0,0,1-1.5-6.463V44.2a13.423,13.423,0,0,1,1.479-6.463,10.461,10.461,0,0,1,4.149-4.245,12.435,12.435,0,0,1,6.2-1.5,11.524,11.524,0,0,1,6.057,1.55,10.652,10.652,0,0,1,4.007,4.293A13.572,13.572,0,0,1,93.37,44.2v2.051H76.152a5.345,5.345,0,0,0,1.812,3.959,6.089,6.089,0,0,0,4.2,1.526,5.361,5.361,0,0,0,3.72-1.1,7.712,7.712,0,0,0,1.813-2.432l4.913,2.575a15.243,15.243,0,0,1-1.932,2.695,10.432,10.432,0,0,1-3.362,2.48,12.158,12.158,0,0,1-5.342,1.026M76.2,41.768H87.265a4.719,4.719,0,0,0-1.646-3.291,6.526,6.526,0,0,0-7.655,0A5.333,5.333,0,0,0,76.2,41.768" transform="translate(-50.205 -22.928)" fill="#fff"/>
    <path id="Path_14" data-name="Path 14" d="M169.353,56.983a13.437,13.437,0,0,1-6.225-1.431,10.76,10.76,0,0,1-4.412-4.149,12.624,12.624,0,0,1-1.622-6.582v-.667a12.626,12.626,0,0,1,1.622-6.583,10.769,10.769,0,0,1,4.412-4.149,13.447,13.447,0,0,1,6.225-1.431,13.116,13.116,0,0,1,5.819,1.192,10.441,10.441,0,0,1,3.934,3.268,11.375,11.375,0,0,1,1.979,4.7l-5.819,1.24a6.844,6.844,0,0,0-.858-2.575A4.821,4.821,0,0,0,172.525,38a6.244,6.244,0,0,0-3.028-.667,6.755,6.755,0,0,0-3.267.786,5.6,5.6,0,0,0-2.289,2.338,7.905,7.905,0,0,0-.834,3.791v.477a7.907,7.907,0,0,0,.834,3.792,5.6,5.6,0,0,0,2.289,2.337,6.756,6.756,0,0,0,3.267.788,5.586,5.586,0,0,0,4.125-1.408,6.6,6.6,0,0,0,1.789-3.7l5.819,1.383a13.065,13.065,0,0,1-2.122,4.6,10.423,10.423,0,0,1-3.934,3.268,13.108,13.108,0,0,1-5.819,1.192" transform="translate(-112.595 -22.928)" fill="#fff"/>
    <path id="Path_15" data-name="Path 15" d="M249.7,33.387V0h6.01V12.639h.858a5.588,5.588,0,0,1,1.193-1.526,6.32,6.32,0,0,1,2.17-1.264,10.148,10.148,0,0,1,3.458-.5,9.128,9.128,0,0,1,4.841,1.265,8.619,8.619,0,0,1,3.219,3.482,11.135,11.135,0,0,1,1.144,5.174V33.387h-6.009V19.747a5.5,5.5,0,0,0-1.312-4.007A5.015,5.015,0,0,0,261.53,14.4a5.274,5.274,0,0,0-4.293,1.836,7.8,7.8,0,0,0-1.526,5.128V33.387Z" transform="translate(-178.968 -0.001)" fill="#fff"/>
    <path id="Path_16" data-name="Path 16" d="M343.32,57.038V33.381h5.914v3.1h.859a6.251,6.251,0,0,1,2.147-2.361A8.244,8.244,0,0,1,357.009,33a9.128,9.128,0,0,1,4.841,1.265,8.623,8.623,0,0,1,3.219,3.482,11.136,11.136,0,0,1,1.144,5.174V57.038H360.2V43.4a5.5,5.5,0,0,0-1.312-4.007,5.013,5.013,0,0,0-3.743-1.336,5.274,5.274,0,0,0-4.293,1.836,7.8,7.8,0,0,0-1.526,5.128V57.038Z" transform="translate(-246.068 -23.651)" fill="#fff"/>
    <rect id="Rectangle_12" data-name="Rectangle 12" width="6.009" height="23.657" transform="translate(123.77 9.73)" fill="#fff"/>
    <path id="Path_17" data-name="Path 17" d="M479.836,56.983a13.436,13.436,0,0,1-6.225-1.431A10.761,10.761,0,0,1,469.2,51.4a12.624,12.624,0,0,1-1.622-6.582v-.667A12.626,12.626,0,0,1,469.2,37.57a10.769,10.769,0,0,1,4.412-4.149,13.446,13.446,0,0,1,6.225-1.431,13.116,13.116,0,0,1,5.819,1.192,10.441,10.441,0,0,1,3.934,3.268,11.375,11.375,0,0,1,1.979,4.7l-5.819,1.24a6.844,6.844,0,0,0-.858-2.575A4.821,4.821,0,0,0,483.008,38a6.243,6.243,0,0,0-3.028-.667,6.755,6.755,0,0,0-3.268.786,5.6,5.6,0,0,0-2.289,2.338,7.9,7.9,0,0,0-.834,3.791v.477a7.907,7.907,0,0,0,.834,3.792,5.6,5.6,0,0,0,2.289,2.337,6.756,6.756,0,0,0,3.268.788,5.586,5.586,0,0,0,4.125-1.408,6.6,6.6,0,0,0,1.789-3.7l5.819,1.383a13.064,13.064,0,0,1-2.122,4.6,10.423,10.423,0,0,1-3.934,3.268,13.108,13.108,0,0,1-5.819,1.192" transform="translate(-335.128 -22.928)" fill="#fff"/>
    <path id="Path_18" data-name="Path 18" d="M559.175,58V50.85l12.973-10.779v-.763h-12.5V34.347h19.079V41.5L565.757,52.281v.763h13.355V58Z" transform="translate(-400.778 -24.618)" fill="#fff"/>
    <path id="Path_19" data-name="Path 19" d="M639.321,57.038V33.381h5.914v3.1h.859a6.251,6.251,0,0,1,2.147-2.361A8.244,8.244,0,0,1,653.01,33a9.128,9.128,0,0,1,4.841,1.265,8.623,8.623,0,0,1,3.219,3.482,11.136,11.136,0,0,1,1.144,5.174V57.038h-6.009V43.4a5.5,5.5,0,0,0-1.312-4.007,5.013,5.013,0,0,0-3.743-1.336,5.274,5.274,0,0,0-4.293,1.836,7.8,7.8,0,0,0-1.526,5.128V57.038Z" transform="translate(-458.221 -23.651)" fill="#fff"/>
    <rect id="Rectangle_13" data-name="Rectangle 13" width="6.01" height="23.657" transform="translate(207.618 9.73)" fill="#fff"/>
    <rect id="Rectangle_14" data-name="Rectangle 14" width="6.01" height="5.717" transform="translate(123.77)" fill="#11cc06"/>
    <rect id="Rectangle_15" data-name="Rectangle 15" width="6.01" height="5.717" transform="translate(207.618)" fill="#11cc06"/>
    <path id="Path_20" data-name="Path 20" d="M436.965,182.2v-32.31h5.756v2.785h.836a7.161,7.161,0,0,1,2.46-2.391,9.058,9.058,0,0,1,4.782-1.045,9.96,9.96,0,0,1,8.96,5.385,13.246,13.246,0,0,1,1.439,6.406v.743a13.248,13.248,0,0,1-1.439,6.407,9.961,9.961,0,0,1-8.96,5.385,10.879,10.879,0,0,1-3.505-.487,6.606,6.606,0,0,1-2.275-1.253,7.741,7.741,0,0,1-1.369-1.555h-.836V182.2Zm12.07-13.741a6.223,6.223,0,0,0,4.526-1.741,6.782,6.782,0,0,0,1.787-5.083v-.464a6.729,6.729,0,0,0-1.811-5.084,6.694,6.694,0,0,0-9.006,0,6.73,6.73,0,0,0-1.811,5.084v.464a6.73,6.73,0,0,0,1.811,5.083,6.241,6.241,0,0,0,4.5,1.741" transform="translate(-313.186 -106.961)" fill="#11cc06"/>
    <path id="Path_21" data-name="Path 21" d="M529.229,174.321V151.3h5.756v2.6h.836a3.672,3.672,0,0,1,1.695-2.043,5.651,5.651,0,0,1,2.762-.65h2.785v5.2h-2.878a5.583,5.583,0,0,0-3.668,1.184,4.446,4.446,0,0,0-1.439,3.644v13.091Z" transform="translate(-379.315 -108.372)" fill="#11cc06"/>
    <path id="Path_22" data-name="Path 22" d="M589.972,173.56a13.424,13.424,0,0,1-6.174-1.393,10.439,10.439,0,0,1-4.317-4.039,12.193,12.193,0,0,1-1.578-6.36v-.743a12.2,12.2,0,0,1,1.578-6.36,10.443,10.443,0,0,1,4.317-4.039,14.384,14.384,0,0,1,12.349,0,10.452,10.452,0,0,1,4.317,4.039,12.2,12.2,0,0,1,1.578,6.36v.743a12.2,12.2,0,0,1-1.578,6.36,10.447,10.447,0,0,1-4.317,4.039,13.427,13.427,0,0,1-6.174,1.393m0-5.2a6.084,6.084,0,0,0,4.456-1.741,6.7,6.7,0,0,0,1.764-4.99v-.464a6.756,6.756,0,0,0-1.741-4.991,6.6,6.6,0,0,0-8.936,0,6.7,6.7,0,0,0-1.764,4.991v.464a6.7,6.7,0,0,0,1.764,4.99,6.083,6.083,0,0,0,4.457,1.741" transform="translate(-414.2 -106.961)" fill="#11cc06"/>
  </g>
</svg>
